<svg width="12" height="12" viewBox="0 0 12 12" fill="none" xmlns="http://www.w3.org/2000/svg">
<g clip-path="url(#clip0_30_1344)">
<path d="M6 11.5C2.99657 11.5 0.5 9.00343 0.5 6C0.5 2.99118 2.99118 0.5 5.99461 0.5C9.00343 0.5 11.5 2.99118 11.5 6C11.5 9.00343 9.00882 11.5 6 11.5ZM6 10.5833C8.5451 10.5833 10.5833 8.5451 10.5833 6C10.5833 3.4549 8.53971 1.41667 5.99461 1.41667C3.44951 1.41667 1.42206 3.4549 1.42206 6C1.42206 8.5451 3.4549 10.5833 6 10.5833ZM4.15588 8.28088C3.91863 8.28088 3.72451 8.08676 3.72451 7.84412C3.72451 7.72549 3.77304 7.62304 3.85392 7.54216L5.38529 6.00539L3.85392 4.46863C3.77304 4.38775 3.72451 4.28529 3.72451 4.16667C3.72451 3.92941 3.91863 3.74069 4.15588 3.74069C4.2799 3.74069 4.37696 3.78382 4.45784 3.8701L5.99461 5.40147L7.54755 3.86471C7.63922 3.77304 7.73088 3.7299 7.84412 3.7299C8.08137 3.7299 8.27549 3.92402 8.27549 4.16127C8.27549 4.2799 8.23775 4.37157 8.14608 4.46324L6.60931 6.00539L8.14069 7.53676C8.22696 7.62304 8.2701 7.7201 8.2701 7.84412C8.2701 8.08676 8.07598 8.28088 7.83873 8.28088C7.71471 8.28088 7.61226 8.22696 7.53137 8.14608L5.99461 6.61471L4.46863 8.14608C4.38775 8.23235 4.2799 8.28088 4.15588 8.28088Z" fill="white"/>
</g>
<defs>
<clipPath id="clip0_30_1344">
<rect width="12" height="12" fill="white"/>
</clipPath>
</defs>
</svg>
