<svg width="27" height="26" viewBox="0 0 27 26" fill="none" xmlns="http://www.w3.org/2000/svg">
<path d="M1.42857 13.4161V11.8009C1.42857 8.91118 3.00052 7.36193 5.97094 7.36193H9.79781C13.0176 7.01033 17.0829 5.8017 20.2702 3.88987C20.5412 2.64828 21.5277 1.85718 22.8829 1.85718C24.4982 1.85718 25.5714 2.94494 25.5714 4.5711V20.569C25.5714 22.1951 24.4982 23.2829 22.8829 23.2829C21.5603 23.2829 20.5846 22.5357 20.2919 21.3491C17.5816 19.7559 14.5678 18.6901 11.5974 18.1297L12.3563 22.1292C12.6381 23.5905 11.9877 24.5904 10.9253 24.931C9.8737 25.2606 8.33428 25.1398 7.44532 23.1291L5.07114 17.8001C2.68613 17.5034 1.42857 15.9872 1.42857 13.4161ZM21.9614 20.569C21.9614 21.1403 22.3191 21.5139 22.8829 21.5139C23.4466 21.5139 23.826 21.1403 23.826 20.569V4.5711C23.826 3.99975 23.4466 3.62617 22.8829 3.62617C22.3191 3.62617 21.9614 3.99975 21.9614 4.5711V20.569ZM10.0255 16.119C13.668 16.5475 17.1263 17.5694 20.2051 19.3493V5.86763C17.2022 7.60366 13.7006 8.65846 10.0255 9.08698V16.119ZM5.97094 16.086H8.26923V9.13093H5.97094C3.98704 9.13093 3.17397 9.90006 3.17397 11.8009V13.4161C3.17397 15.3059 3.98704 16.086 5.97094 16.086ZM9.16903 22.8104C9.41837 23.3378 9.89538 23.4587 10.264 23.3268C10.6109 23.206 10.8602 22.8873 10.7735 22.3929L9.89538 17.866C9.84117 17.866 9.78697 17.855 9.73276 17.855H6.88159L9.16903 22.8104Z" fill="#A4A4A4"/>
</svg>
