<svg width="24" height="24" viewBox="0 0 24 24" fill="none" xmlns="http://www.w3.org/2000/svg">
<path d="M12 23C5.99314 23 1 18.0069 1 12C1 5.98235 5.98235 1 11.9892 1C18.0069 1 23 5.98235 23 12C23 18.0069 18.0176 23 12 23ZM12 21.1667C17.0902 21.1667 21.1667 17.0902 21.1667 12C21.1667 6.9098 17.0794 2.83333 11.9892 2.83333C6.89902 2.83333 2.84412 6.9098 2.84412 12C2.84412 17.0902 6.9098 21.1667 12 21.1667ZM8.31176 16.5618C7.83726 16.5618 7.44902 16.1735 7.44902 15.6882C7.44902 15.451 7.54608 15.2461 7.70784 15.0843L10.7706 12.0108L7.70784 8.93725C7.54608 8.77549 7.44902 8.57059 7.44902 8.33333C7.44902 7.85882 7.83726 7.48137 8.31176 7.48137C8.5598 7.48137 8.75392 7.56765 8.91569 7.7402L11.9892 10.8029L15.0951 7.72941C15.2784 7.54608 15.4618 7.4598 15.6882 7.4598C16.1627 7.4598 16.551 7.84804 16.551 8.32255C16.551 8.5598 16.4755 8.74314 16.2922 8.92647L13.2186 12.0108L16.2814 15.0735C16.4539 15.2461 16.5402 15.4402 16.5402 15.6882C16.5402 16.1735 16.152 16.5618 15.6775 16.5618C15.4294 16.5618 15.2245 16.4539 15.0627 16.2922L11.9892 13.2294L8.93725 16.2922C8.77549 16.4647 8.5598 16.5618 8.31176 16.5618Z" fill="#383C44"/>
</svg>
