<svg width="25" height="23" viewBox="0 0 25 23" fill="none" xmlns="http://www.w3.org/2000/svg">
<path d="M4.85989 22.4922C3.76345 22.4922 3.42281 21.5661 3.987 20.8209C4.46602 20.1929 5.3602 18.9368 5.83923 18.0106C2.47541 16.4565 0.23996 13.3588 0.23996 9.86722C0.23996 4.51279 5.60504 0.190918 12.3114 0.190918C19.0177 0.190918 24.3828 4.51279 24.3828 9.86722C24.3828 15.4452 18.8155 19.7032 11.3959 19.5009C9.23498 21.0445 6.29696 22.4922 4.85989 22.4922ZM5.97761 20.7251C6.94631 20.3313 8.84112 19.1603 10.1505 18.2129C10.555 17.8936 10.8956 17.7552 11.3427 17.7552C11.7685 17.7658 12.0985 17.7765 12.3114 17.7765C18.0597 17.7765 22.6264 14.221 22.6264 9.86722C22.6264 5.50277 18.0597 1.94734 12.3114 1.94734C6.57373 1.94734 2.00703 5.50277 2.00703 9.86722C2.00703 12.6988 3.92313 15.1791 7.26566 16.7332C7.94694 17.0526 8.02145 17.5423 7.72339 18.0958C7.36146 18.7771 6.50986 19.8842 5.91374 20.6187C5.86052 20.6932 5.89245 20.7571 5.97761 20.7251Z" fill="#A4A4A4"/>
</svg>
