<svg width="27" height="26" viewBox="0 0 27 26" fill="none" xmlns="http://www.w3.org/2000/svg">
<path d="M1.42857 21.4712V7.22163C1.42857 7.04311 1.45031 6.8961 1.55902 6.71759C2.52647 5.08996 4.98315 3.71436 7.98334 3.71436C10.3422 3.71436 12.4075 4.62793 13.5054 5.91952C14.6033 4.62793 16.6578 3.71436 19.0275 3.71436C22.0169 3.71436 24.4735 5.08996 25.441 6.71759C25.5606 6.8961 25.5714 7.04311 25.5714 7.22163V21.4712C25.5714 22.3323 24.9844 22.6683 24.354 22.6683C23.9735 22.6683 23.6583 22.4583 23.2452 22.2168C22.0495 21.4292 20.582 20.9462 19.071 20.9567C17.4948 20.9672 15.9404 21.5342 14.7229 22.6578C14.2555 23.0778 13.8968 23.2144 13.5054 23.2144C13.1032 23.2144 12.7554 23.0778 12.2771 22.6578C11.0596 21.5237 9.50518 20.9672 7.93986 20.9567C6.4289 20.9462 4.95054 21.4292 3.75481 22.2168C3.34174 22.4583 3.0265 22.6683 2.65691 22.6683C2.01557 22.6683 1.42857 22.3323 1.42857 21.4712ZM3.17869 20.5787C4.33093 19.7806 6.09192 19.2661 7.98334 19.2661C9.78781 19.2661 11.5162 19.9066 12.6249 20.7572V7.52615C11.8532 6.24505 10.0487 5.40499 7.98334 5.40499C5.97234 5.40499 4.05918 6.23455 3.17869 7.46314V20.5787ZM14.3751 20.7572C15.4838 19.9066 17.2122 19.2661 19.0275 19.2661C20.9081 19.2661 22.6691 19.7806 23.8213 20.5787V7.46314C22.9408 6.23455 21.0277 5.40499 19.0275 5.40499C16.9622 5.40499 15.1468 6.24505 14.3751 7.52615V20.7572Z" fill="#A4A4A4"/>
</svg>
