<svg width="25" height="26" viewBox="0 0 25 26" fill="none" xmlns="http://www.w3.org/2000/svg">
<path d="M12.5 25.0713C5.84888 25.0713 0.42857 19.651 0.42857 12.9999C0.42857 6.33694 5.84888 0.928467 12.5 0.928467C19.163 0.928467 24.5714 6.33694 24.5714 12.9999C24.5714 19.651 19.163 25.0713 12.5 25.0713ZM6.58263 10.0294C7.16253 10.0294 7.63592 9.54415 7.63592 8.97609C7.63592 8.38435 7.17437 7.92279 6.58263 7.92279C6.00273 7.92279 5.54117 8.38435 5.54117 8.97609C5.54117 9.55599 6.00273 10.0294 6.58263 10.0294ZM9.52948 9.72167H18.6659C19.0919 9.72167 19.4233 9.3903 19.4233 8.97609C19.4233 8.56187 19.0919 8.24233 18.6659 8.24233H9.52948C9.10343 8.24233 8.79573 8.56187 8.79573 8.97609C8.79573 9.37847 9.1271 9.72167 9.52948 9.72167ZM6.58263 14.065C7.16253 14.065 7.63592 13.5916 7.63592 13.0117C7.63592 12.4318 7.16253 11.9584 6.58263 11.9584C6.00273 11.9584 5.54117 12.42 5.54117 13.0117C5.54117 13.6035 6.00273 14.065 6.58263 14.065ZM9.52948 13.7573H18.6659C19.0919 13.7573 19.4233 13.4259 19.4233 13.0117C19.4233 12.5975 19.0919 12.278 18.6659 12.278H9.52948C9.1271 12.278 8.79573 12.6093 8.79573 13.0117C8.79573 13.4141 9.1271 13.7573 9.52948 13.7573ZM6.58263 18.1007C7.17437 18.1007 7.63592 17.6391 7.63592 17.0474C7.63592 16.4793 7.16253 15.9941 6.58263 15.9941C6.00273 15.9941 5.54117 16.4675 5.54117 17.0474C5.54117 17.6391 6.00273 18.1007 6.58263 18.1007ZM9.52948 17.793H18.6659C19.0919 17.793 19.4233 17.4616 19.4233 17.0474C19.4233 16.6332 19.0919 16.3136 18.6659 16.3136H9.52948C9.1271 16.3136 8.79573 16.645 8.79573 17.0474C8.79573 17.4616 9.10343 17.793 9.52948 17.793Z" fill="#383C44"/>
</svg>
