<svg width="20" height="20" viewBox="0 0 20 20" fill="none" xmlns="http://www.w3.org/2000/svg">
<g clip-path="url(#clip0_30_484)">
<path d="M10 19.1666C4.99429 19.1666 0.833344 15.0056 0.833344 9.99992C0.833344 4.98521 4.9853 0.833252 9.99102 0.833252C15.0057 0.833252 19.1667 4.98521 19.1667 9.99992C19.1667 15.0056 15.0147 19.1666 10 19.1666ZM10 17.6388C14.2418 17.6388 17.6389 14.2417 17.6389 9.99992C17.6389 5.75809 14.2329 2.36103 9.99102 2.36103C5.74919 2.36103 2.37011 5.75809 2.37011 9.99992C2.37011 14.2417 5.75818 17.6388 10 17.6388ZM9.91913 6.89044C9.27207 6.89044 8.75083 6.3692 8.75083 5.71315C8.75083 5.05711 9.27207 4.53587 9.91913 4.53587C10.5752 4.53587 11.0874 5.05711 11.0874 5.71315C11.0874 6.3692 10.5752 6.89044 9.91913 6.89044ZM8.4273 15.0326C8.05883 15.0326 7.77125 14.763 7.77125 14.3945C7.77125 14.044 8.05883 13.7654 8.4273 13.7654H9.54168V9.64943H8.58008C8.21161 9.64943 7.92403 9.37982 7.92403 9.01136C7.92403 8.66087 8.21161 8.38227 8.58008 8.38227H10.2696C10.728 8.38227 10.9706 8.7058 10.9706 9.19109V13.7654H12.085C12.4534 13.7654 12.741 14.044 12.741 14.3945C12.741 14.763 12.4534 15.0326 12.085 15.0326H8.4273Z" fill="#DDDDDD"/>
</g>
<defs>
<clipPath id="clip0_30_484">
<rect width="20" height="20" fill="white"/>
</clipPath>
</defs>
</svg>
