<svg width="143" height="39" viewBox="0 0 143 39" fill="none" xmlns="http://www.w3.org/2000/svg">
<g filter="url(#filter0_d_4_4937)">
<rect x="3.9165" y="1" width="32" height="32" rx="7.05512" fill="url(#paint0_linear_4_4937)"/>
<rect x="4.0581" y="1.14159" width="31.7168" height="31.7168" rx="6.91352" stroke="url(#paint1_linear_4_4937)" stroke-width="0.283186"/>
</g>
<mask id="mask0_4_4937" style="mask-type:alpha" maskUnits="userSpaceOnUse" x="3" y="21" width="33" height="11">
<rect x="3.9165" y="21.4609" width="32" height="10.4779" fill="#D9D9D9"/>
</mask>
<g mask="url(#mask0_4_4937)">
<mask id="mask1_4_4937" style="mask-type:alpha" maskUnits="userSpaceOnUse" x="3" y="-1" width="33" height="33">
<rect x="4.05828" y="0.0795812" width="31.7168" height="31.7168" rx="6.91352" fill="url(#paint2_linear_4_4937)" stroke="url(#paint3_linear_4_4937)" stroke-width="0.283186"/>
</mask>
<g mask="url(#mask1_4_4937)">
<rect opacity="0.7" x="30.5311" y="-0.0620117" width="1.25734" height="34.668" rx="0.283186" transform="rotate(30 30.5311 -0.0620117)" fill="#FFB1AC"/>
<rect opacity="0.3" x="29.1191" y="-0.0620117" width="1.25734" height="34.7313" rx="0.283186" transform="rotate(30 29.1191 -0.0620117)" fill="#FFB1AC"/>
<rect opacity="0.7" x="27.7073" y="-0.0620117" width="1.25734" height="34.6243" rx="0.283186" transform="rotate(30 27.7073 -0.0620117)" fill="#FFB1AC"/>
<rect opacity="0.3" x="26.2894" y="-0.0620117" width="1.25734" height="33.5871" rx="0.283186" transform="rotate(30 26.2894 -0.0620117)" fill="#FFB1AC"/>
<rect opacity="0.7" x="24.8716" y="-0.0620117" width="1.25734" height="32.1965" rx="0.283186" transform="rotate(30 24.8716 -0.0620117)" fill="#FFB1AC"/>
<rect opacity="0.7" width="1.25791" height="34.0285" rx="0.283186" transform="matrix(-0.866025 0.5 0.5 0.866025 10.1055 0.582031)" fill="#FFB1AC"/>
<rect opacity="0.2" width="1.25791" height="34.1679" rx="0.283186" transform="matrix(-0.866025 0.5 0.5 0.866025 11.5174 0.582031)" fill="#FFB1AC"/>
<rect opacity="0.7" width="1.25791" height="34.0498" rx="0.283186" transform="matrix(-0.866025 0.5 0.5 0.866025 12.9352 0.582031)" fill="#FFB1AC"/>
<rect opacity="0.2" width="1.25791" height="32.9132" rx="0.283186" transform="matrix(-0.866025 0.5 0.5 0.866025 14.353 0.582031)" fill="#FFB1AC"/>
<rect opacity="0.7" width="1.25791" height="31.7203" rx="0.283186" transform="matrix(-0.866025 0.5 0.5 0.866025 15.7649 0.582031)" fill="#FFB1AC"/>
</g>
</g>
<g filter="url(#filter1_d_4_4937)">
<mask id="path-15-inside-1_4_4937" fill="white">
<path d="M19.3578 6.11086C19.746 5.60335 20.5106 5.60335 20.8988 6.11086L21.6205 7.05422C21.9044 7.42533 22.4127 7.54177 22.8295 7.33058L23.8891 6.79348C24.459 6.50471 25.148 6.83592 25.2777 7.46144L25.518 8.62551C25.6127 9.083 26.0206 9.40832 26.4877 9.39894L27.6762 9.37453C28.3149 9.36178 28.7908 9.95973 28.6361 10.5796L28.349 11.732C28.2359 12.1853 28.4621 12.655 28.8871 12.8491L29.9672 13.3433C30.5483 13.6088 30.7191 14.3538 30.3109 14.8452L29.5512 15.7593C29.2525 16.1186 29.2525 16.6402 29.5512 16.9995L30.3109 17.9126C30.7193 18.404 30.5484 19.15 29.9672 19.4155L28.8871 19.9087C28.4622 20.1029 28.236 20.5726 28.349 21.0259L28.6361 22.1792C28.7908 22.7991 28.3149 23.397 27.6762 23.3843L26.4877 23.3599C26.0206 23.3505 25.6127 23.6758 25.518 24.1333L25.2777 25.2964C25.1482 25.9221 24.459 26.2542 23.8891 25.9654L22.8295 25.4282C22.4128 25.2171 21.9044 25.3327 21.6205 25.7036L20.8988 26.648C20.5107 27.1554 19.7461 27.1552 19.3578 26.648L18.6351 25.7036C18.3513 25.3328 17.8438 25.2172 17.4271 25.4282L16.3666 25.9654C15.7967 26.254 15.1085 25.922 14.9789 25.2964L14.7377 24.1333C14.6429 23.6758 14.2351 23.3504 13.768 23.3599L12.5805 23.3843C11.9416 23.3972 11.4648 22.7992 11.6195 22.1792L11.9076 21.0259C12.0205 20.5727 11.7943 20.1029 11.3695 19.9087L10.2885 19.4155C9.7073 19.15 9.5373 18.404 9.9457 17.9126L10.7055 16.9995C11.004 16.6403 11.0039 16.1186 10.7055 15.7593L9.9457 14.8452C9.5373 14.3538 9.7073 13.6088 10.2885 13.3433L11.3695 12.8491C11.7943 12.6549 12.0207 12.1852 11.9076 11.732L11.6195 10.5796C11.4648 9.95966 11.9416 9.36163 12.5805 9.37453L13.768 9.39894C14.2351 9.40838 14.6429 9.08303 14.7377 8.62551L14.9789 7.46144C15.1087 6.83601 15.7967 6.50474 16.3666 6.79348L17.4271 7.33058C17.8438 7.5415 18.3513 7.42519 18.6351 7.05422L19.3578 6.11086ZM19.7758 7.86574C15.553 7.86574 12.1293 11.2894 12.1293 15.5122L12.1391 15.9048C12.3371 19.8146 15.4724 22.95 19.3822 23.148L19.7758 23.1577C23.8664 23.1574 27.2069 19.9446 27.4115 15.9048L27.4213 15.5122C27.4213 11.4213 24.2084 8.08017 20.1684 7.87551L19.7758 7.86574ZM19.7758 8.14894C23.8419 8.14929 27.1381 11.4461 27.1381 15.5122C27.1377 19.5781 23.8416 22.8742 19.7758 22.8745C15.7096 22.8745 12.4129 19.5783 12.4125 15.5122C12.4125 11.4458 15.7094 8.14894 19.7758 8.14894ZM20.5912 15.6861C20.5912 15.6861 18.656 14.646 16.5346 16.5523C14.6236 18.2694 15.6139 19.3708 16.4144 19.771C16.9657 20.0465 17.5807 20.0069 17.9828 19.9995C18.24 19.9949 18.3529 20.0728 18.3529 20.0728C18.3529 20.0728 18.4832 20.1169 18.6322 20.3247C18.865 20.6492 19.1975 21.1616 19.7484 21.437C20.549 21.8371 22.0327 21.9727 22.2943 19.4312C22.582 16.6347 20.6258 15.7023 20.5912 15.6861ZM25.4516 17.0601C24.9439 16.5186 24.0074 16.5622 23.3598 17.1568C22.7122 17.7515 22.5982 18.6728 23.1059 19.2144C23.6135 19.7558 24.55 19.7123 25.1976 19.1177C25.8451 18.5229 25.9593 17.6016 25.4516 17.0601ZM24.2435 13.1157C23.5289 12.6599 22.5075 12.9689 21.9623 13.8062C21.4171 14.6434 21.5543 15.6921 22.2689 16.148C22.9836 16.6036 24.0051 16.2938 24.5502 15.4566C25.0951 14.6195 24.9578 13.5717 24.2435 13.1157ZM16.5873 12.6304C15.8457 12.5476 15.1639 13.1854 15.0648 14.0542C14.9659 14.9231 15.4873 15.695 16.2289 15.7779C16.9704 15.8604 17.6514 15.2227 17.7504 14.354C17.8495 13.4852 17.3289 12.7132 16.5873 12.6304ZM20.5121 11.2505C19.7171 10.952 18.7831 11.4658 18.4262 12.397C18.0694 13.3282 18.4244 14.3251 19.2191 14.6236C20.014 14.9218 20.948 14.4091 21.3051 13.478C21.662 12.5468 21.3069 11.5491 20.5121 11.2505Z"/>
</mask>
<path d="M19.3578 6.11086C19.746 5.60335 20.5106 5.60335 20.8988 6.11086L21.6205 7.05422C21.9044 7.42533 22.4127 7.54177 22.8295 7.33058L23.8891 6.79348C24.459 6.50471 25.148 6.83592 25.2777 7.46144L25.518 8.62551C25.6127 9.083 26.0206 9.40832 26.4877 9.39894L27.6762 9.37453C28.3149 9.36178 28.7908 9.95973 28.6361 10.5796L28.349 11.732C28.2359 12.1853 28.4621 12.655 28.8871 12.8491L29.9672 13.3433C30.5483 13.6088 30.7191 14.3538 30.3109 14.8452L29.5512 15.7593C29.2525 16.1186 29.2525 16.6402 29.5512 16.9995L30.3109 17.9126C30.7193 18.404 30.5484 19.15 29.9672 19.4155L28.8871 19.9087C28.4622 20.1029 28.236 20.5726 28.349 21.0259L28.6361 22.1792C28.7908 22.7991 28.3149 23.397 27.6762 23.3843L26.4877 23.3599C26.0206 23.3505 25.6127 23.6758 25.518 24.1333L25.2777 25.2964C25.1482 25.9221 24.459 26.2542 23.8891 25.9654L22.8295 25.4282C22.4128 25.2171 21.9044 25.3327 21.6205 25.7036L20.8988 26.648C20.5107 27.1554 19.7461 27.1552 19.3578 26.648L18.6351 25.7036C18.3513 25.3328 17.8438 25.2172 17.4271 25.4282L16.3666 25.9654C15.7967 26.254 15.1085 25.922 14.9789 25.2964L14.7377 24.1333C14.6429 23.6758 14.2351 23.3504 13.768 23.3599L12.5805 23.3843C11.9416 23.3972 11.4648 22.7992 11.6195 22.1792L11.9076 21.0259C12.0205 20.5727 11.7943 20.1029 11.3695 19.9087L10.2885 19.4155C9.7073 19.15 9.5373 18.404 9.9457 17.9126L10.7055 16.9995C11.004 16.6403 11.0039 16.1186 10.7055 15.7593L9.9457 14.8452C9.5373 14.3538 9.7073 13.6088 10.2885 13.3433L11.3695 12.8491C11.7943 12.6549 12.0207 12.1852 11.9076 11.732L11.6195 10.5796C11.4648 9.95966 11.9416 9.36163 12.5805 9.37453L13.768 9.39894C14.2351 9.40838 14.6429 9.08303 14.7377 8.62551L14.9789 7.46144C15.1087 6.83601 15.7967 6.50474 16.3666 6.79348L17.4271 7.33058C17.8438 7.5415 18.3513 7.42519 18.6351 7.05422L19.3578 6.11086ZM19.7758 7.86574C15.553 7.86574 12.1293 11.2894 12.1293 15.5122L12.1391 15.9048C12.3371 19.8146 15.4724 22.95 19.3822 23.148L19.7758 23.1577C23.8664 23.1574 27.2069 19.9446 27.4115 15.9048L27.4213 15.5122C27.4213 11.4213 24.2084 8.08017 20.1684 7.87551L19.7758 7.86574ZM19.7758 8.14894C23.8419 8.14929 27.1381 11.4461 27.1381 15.5122C27.1377 19.5781 23.8416 22.8742 19.7758 22.8745C15.7096 22.8745 12.4129 19.5783 12.4125 15.5122C12.4125 11.4458 15.7094 8.14894 19.7758 8.14894ZM20.5912 15.6861C20.5912 15.6861 18.656 14.646 16.5346 16.5523C14.6236 18.2694 15.6139 19.3708 16.4144 19.771C16.9657 20.0465 17.5807 20.0069 17.9828 19.9995C18.24 19.9949 18.3529 20.0728 18.3529 20.0728C18.3529 20.0728 18.4832 20.1169 18.6322 20.3247C18.865 20.6492 19.1975 21.1616 19.7484 21.437C20.549 21.8371 22.0327 21.9727 22.2943 19.4312C22.582 16.6347 20.6258 15.7023 20.5912 15.6861ZM25.4516 17.0601C24.9439 16.5186 24.0074 16.5622 23.3598 17.1568C22.7122 17.7515 22.5982 18.6728 23.1059 19.2144C23.6135 19.7558 24.55 19.7123 25.1976 19.1177C25.8451 18.5229 25.9593 17.6016 25.4516 17.0601ZM24.2435 13.1157C23.5289 12.6599 22.5075 12.9689 21.9623 13.8062C21.4171 14.6434 21.5543 15.6921 22.2689 16.148C22.9836 16.6036 24.0051 16.2938 24.5502 15.4566C25.0951 14.6195 24.9578 13.5717 24.2435 13.1157ZM16.5873 12.6304C15.8457 12.5476 15.1639 13.1854 15.0648 14.0542C14.9659 14.9231 15.4873 15.695 16.2289 15.7779C16.9704 15.8604 17.6514 15.2227 17.7504 14.354C17.8495 13.4852 17.3289 12.7132 16.5873 12.6304ZM20.5121 11.2505C19.7171 10.952 18.7831 11.4658 18.4262 12.397C18.0694 13.3282 18.4244 14.3251 19.2191 14.6236C20.014 14.9218 20.948 14.4091 21.3051 13.478C21.662 12.5468 21.3069 11.5491 20.5121 11.2505Z" fill="url(#paint4_linear_4_4937)"/>
<path d="M19.3578 6.11086L19.5291 6.24206L19.5292 6.24195L19.3578 6.11086ZM20.8988 6.11086L20.7275 6.24195L20.7275 6.24195L20.8988 6.11086ZM21.6205 7.05422L21.7919 6.92313L21.7919 6.92312L21.6205 7.05422ZM22.8295 7.33058L22.927 7.52304L22.927 7.52303L22.8295 7.33058ZM23.8891 6.79348L23.7915 6.60102L23.7915 6.60103L23.8891 6.79348ZM25.2777 7.46144L25.489 7.41784L25.489 7.41764L25.2777 7.46144ZM25.518 8.62551L25.3067 8.66911L25.3067 8.66926L25.518 8.62551ZM26.4877 9.39894L26.492 9.61466L26.4921 9.61466L26.4877 9.39894ZM27.6762 9.37453L27.6719 9.15882L27.6717 9.15882L27.6762 9.37453ZM28.6361 10.5796L28.4268 10.5274L28.4268 10.5274L28.6361 10.5796ZM28.349 11.732L28.5584 11.7842L28.5584 11.7841L28.349 11.732ZM28.8871 12.8491L28.9769 12.6529L28.9768 12.6529L28.8871 12.8491ZM29.9672 13.3433L29.8774 13.5395L29.8775 13.5395L29.9672 13.3433ZM30.3109 14.8452L30.4769 14.9831L30.4769 14.9831L30.3109 14.8452ZM29.5512 15.7593L29.3852 15.6214L29.3852 15.6214L29.5512 15.7593ZM29.5512 16.9995L29.3852 17.1374L29.3853 17.1375L29.5512 16.9995ZM30.3109 17.9126L30.4769 17.7747L30.4768 17.7746L30.3109 17.9126ZM29.9672 19.4155L30.0568 19.6118L30.0569 19.6118L29.9672 19.4155ZM28.8871 19.9087L28.7975 19.7124L28.7974 19.7125L28.8871 19.9087ZM28.349 21.0259L28.5584 20.9738L28.5584 20.9737L28.349 21.0259ZM28.6361 22.1792L28.4268 22.2313L28.4268 22.2315L28.6361 22.1792ZM27.6762 23.3843L27.6717 23.6L27.6719 23.6L27.6762 23.3843ZM26.4877 23.3599L26.4921 23.1442L26.492 23.1442L26.4877 23.3599ZM25.518 24.1333L25.3067 24.0896L25.3067 24.0897L25.518 24.1333ZM25.2777 25.2964L25.489 25.3402L25.489 25.34L25.2777 25.2964ZM23.8891 25.9654L23.7915 26.1578L23.7915 26.1578L23.8891 25.9654ZM22.8295 25.4282L22.927 25.2358L22.927 25.2358L22.8295 25.4282ZM21.6205 25.7036L21.4492 25.5725L21.4491 25.5726L21.6205 25.7036ZM20.8988 26.648L21.0702 26.7791L21.0703 26.779L20.8988 26.648ZM19.3578 26.648L19.1865 26.7791L19.1865 26.7791L19.3578 26.648ZM18.6351 25.7036L18.8065 25.5725L18.8065 25.5725L18.6351 25.7036ZM17.4271 25.4282L17.3297 25.2358L17.4271 25.4282ZM16.3666 25.9654L16.4641 26.1578L16.4641 26.1578L16.3666 25.9654ZM14.9789 25.2964L15.1902 25.2527L15.1902 25.2526L14.9789 25.2964ZM14.7377 24.1333L14.5264 24.1771L14.5264 24.1771L14.7377 24.1333ZM13.768 23.3599L13.7636 23.1442L13.7635 23.1442L13.768 23.3599ZM12.5805 23.3843L12.5848 23.6L12.5849 23.6L12.5805 23.3843ZM11.6195 22.1792L11.4102 22.1269L11.4102 22.127L11.6195 22.1792ZM11.9076 21.0259L12.1169 21.0782L12.117 21.0781L11.9076 21.0259ZM11.3695 19.9087L11.4592 19.7125L11.4591 19.7124L11.3695 19.9087ZM10.2885 19.4155L10.1988 19.6118L10.1989 19.6118L10.2885 19.4155ZM9.9457 17.9126L9.77985 17.7746L9.77976 17.7747L9.9457 17.9126ZM10.7055 16.9995L10.8713 17.1375L10.8714 17.1374L10.7055 16.9995ZM10.7055 15.7593L10.8714 15.6215L10.8714 15.6214L10.7055 15.7593ZM9.9457 14.8452L9.77976 14.9831L9.77977 14.9831L9.9457 14.8452ZM10.2885 13.3433L10.3781 13.5395L10.3782 13.5395L10.2885 13.3433ZM11.3695 12.8491L11.4592 13.0454L11.4593 13.0453L11.3695 12.8491ZM11.9076 11.732L12.1169 11.6797L12.1169 11.6796L11.9076 11.732ZM11.6195 10.5796L11.4102 10.6319L11.4102 10.6319L11.6195 10.5796ZM12.5805 9.37453L12.5849 9.15882L12.5848 9.15882L12.5805 9.37453ZM13.768 9.39894L13.7635 9.61466L13.7636 9.61466L13.768 9.39894ZM14.7377 8.62551L14.5264 8.58173L14.5264 8.58175L14.7377 8.62551ZM14.9789 7.46144L14.7676 7.41761L14.7676 7.41767L14.9789 7.46144ZM16.3666 6.79348L16.2691 6.98594L16.2691 6.98595L16.3666 6.79348ZM17.4271 7.33058L17.3297 7.52306L17.3297 7.52309L17.4271 7.33058ZM18.6351 7.05422L18.4639 6.92301L18.4638 6.92312L18.6351 7.05422ZM19.7758 7.86574L19.7811 7.64998H19.7758V7.86574ZM12.1293 15.5122H11.9135L11.9136 15.5176L12.1293 15.5122ZM12.1391 15.9048L11.9233 15.9102L11.9236 15.9157L12.1391 15.9048ZM19.3822 23.148L19.3713 23.3635L19.3769 23.3637L19.3822 23.148ZM19.7758 23.1577L19.7704 23.3735H19.7758L19.7758 23.1577ZM27.4115 15.9048L27.6271 15.9157L27.6272 15.9102L27.4115 15.9048ZM27.4213 15.5122L27.637 15.5176V15.5122H27.4213ZM20.1684 7.87551L20.1793 7.65996L20.1737 7.65982L20.1684 7.87551ZM19.7758 8.14894L19.7758 7.93319H19.7758V8.14894ZM27.1381 15.5122L27.3538 15.5122V15.5122H27.1381ZM19.7758 22.8745V23.0903H19.7758L19.7758 22.8745ZM12.4125 15.5122H12.1967V15.5122L12.4125 15.5122ZM20.5912 15.6861L20.4889 15.8764L20.4994 15.8813L20.5912 15.6861ZM16.5346 16.5523L16.6788 16.7127L16.6788 16.7127L16.5346 16.5523ZM16.4144 19.771L16.318 19.964L16.318 19.964L16.4144 19.771ZM17.9828 19.9995L17.9789 19.7838L17.9789 19.7838L17.9828 19.9995ZM18.3529 20.0728L18.2305 20.2504L18.2552 20.2675L18.2837 20.2771L18.3529 20.0728ZM18.6322 20.3247L18.4569 20.4504L18.4569 20.4505L18.6322 20.3247ZM19.7484 21.437L19.6519 21.63L19.652 21.63L19.7484 21.437ZM22.2943 19.4312L22.509 19.4533L22.509 19.4532L22.2943 19.4312ZM25.4516 17.0601L25.2942 17.2076L25.2942 17.2076L25.4516 17.0601ZM23.3598 17.1568L23.2138 16.9978L23.2138 16.9979L23.3598 17.1568ZM23.1059 19.2144L22.9484 19.3619L22.9485 19.3619L23.1059 19.2144ZM25.1976 19.1177L25.3436 19.2766L25.3436 19.2766L25.1976 19.1177ZM24.2435 13.1157L24.3596 12.9339L24.3596 12.9338L24.2435 13.1157ZM21.9623 13.8062L21.7815 13.6884L21.7815 13.6884L21.9623 13.8062ZM22.2689 16.148L22.1529 16.3299L22.1529 16.3299L22.2689 16.148ZM24.5502 15.4566L24.731 15.5743L24.731 15.5743L24.5502 15.4566ZM16.5873 12.6304L16.6113 12.416L16.6112 12.416L16.5873 12.6304ZM15.0648 14.0542L14.8505 14.0298L14.8505 14.0298L15.0648 14.0542ZM16.2289 15.7779L16.2049 15.9923L16.205 15.9923L16.2289 15.7779ZM17.7504 14.354L17.536 14.3296L17.536 14.3296L17.7504 14.354ZM20.5121 11.2505L20.588 11.0485L20.5879 11.0485L20.5121 11.2505ZM18.4262 12.397L18.2247 12.3198L18.2247 12.3198L18.4262 12.397ZM19.2191 14.6236L19.1433 14.8255L19.1433 14.8256L19.2191 14.6236ZM21.3051 13.478L21.5065 13.5553L21.5065 13.5553L21.3051 13.478ZM19.3578 6.11086L19.5292 6.24195C19.831 5.84733 20.4256 5.84733 20.7275 6.24195L20.8988 6.11086L21.0702 5.97977C20.5956 5.35937 19.661 5.35937 19.1864 5.97977L19.3578 6.11086ZM20.8988 6.11086L20.7275 6.24195L21.4491 7.18531L21.6205 7.05422L21.7919 6.92312L21.0702 5.97976L20.8988 6.11086ZM21.6205 7.05422L21.4491 7.18531C21.7961 7.63883 22.4173 7.78129 22.927 7.52304L22.8295 7.33058L22.732 7.13812C22.408 7.30226 22.0127 7.21183 21.7919 6.92313L21.6205 7.05422ZM22.8295 7.33058L22.927 7.52303L23.9866 6.98592L23.8891 6.79348L23.7915 6.60103L22.7319 7.13814L22.8295 7.33058ZM23.8891 6.79348L23.9866 6.98594C24.4299 6.76131 24.9656 7.01907 25.0665 7.50525L25.2777 7.46144L25.489 7.41764C25.3304 6.65277 24.488 6.2481 23.7915 6.60102L23.8891 6.79348ZM25.2777 7.46144L25.0664 7.50505L25.3067 8.66911L25.518 8.62551L25.7293 8.5819L25.489 7.41784L25.2777 7.46144ZM25.518 8.62551L25.3067 8.66926C25.4225 9.22852 25.921 9.62612 26.492 9.61466L26.4877 9.39894L26.4834 9.18323C26.1202 9.19052 25.8029 8.93749 25.7292 8.58175L25.518 8.62551ZM26.4877 9.39894L26.4921 9.61466L27.6806 9.59024L27.6762 9.37453L27.6717 9.15882L26.4833 9.18323L26.4877 9.39894ZM27.6762 9.37453L27.6805 9.59024C28.1768 9.58034 28.5472 10.0451 28.4268 10.5274L28.6361 10.5796L28.8455 10.6319C29.0345 9.87435 28.4529 9.14323 27.6719 9.15882L27.6762 9.37453ZM28.6361 10.5796L28.4268 10.5274L28.1397 11.6798L28.349 11.732L28.5584 11.7841L28.8455 10.6318L28.6361 10.5796ZM28.349 11.732L28.1397 11.6797C28.0014 12.2339 28.2779 12.808 28.7974 13.0454L28.8871 12.8491L28.9768 12.6529C28.6463 12.5019 28.4704 12.1367 28.5584 11.7842L28.349 11.732ZM28.8871 12.8491L28.7973 13.0453L29.8774 13.5395L29.9672 13.3433L30.0569 13.1471L28.9769 12.6529L28.8871 12.8491ZM29.9672 13.3433L29.8775 13.5395C30.3296 13.7461 30.4621 14.3255 30.145 14.7074L30.3109 14.8452L30.4769 14.9831C30.976 14.3821 30.7669 13.4715 30.0569 13.147L29.9672 13.3433ZM30.3109 14.8452L30.145 14.7073L29.3852 15.6214L29.5512 15.7593L29.7171 15.8972L30.4769 14.9831L30.3109 14.8452ZM29.5512 15.7593L29.3852 15.6214C29.0202 16.0607 29.0202 16.6981 29.3852 17.1374L29.5512 16.9995L29.7171 16.8616C29.4849 16.5822 29.4849 16.1766 29.7171 15.8972L29.5512 15.7593ZM29.5512 16.9995L29.3853 17.1375L30.1451 18.0506L30.3109 17.9126L30.4768 17.7746L29.717 16.8615L29.5512 16.9995ZM30.3109 17.9126L30.145 18.0505C30.4624 18.4324 30.3297 19.0127 29.8775 19.2193L29.9672 19.4155L30.0569 19.6118C30.767 19.2873 30.9763 18.3757 30.4769 17.7747L30.3109 17.9126ZM29.9672 19.4155L29.8776 19.2193L28.7975 19.7124L28.8871 19.9087L28.9767 20.105L30.0568 19.6118L29.9672 19.4155ZM28.8871 19.9087L28.7974 19.7125C28.278 19.9498 28.0015 20.524 28.1397 21.0781L28.349 21.0259L28.5584 20.9737C28.4705 20.6212 28.6464 20.2559 28.9768 20.105L28.8871 19.9087ZM28.349 21.0259L28.1397 21.078L28.4268 22.2313L28.6361 22.1792L28.8455 22.1271L28.5584 20.9738L28.349 21.0259ZM28.6361 22.1792L28.4268 22.2315C28.5472 22.7137 28.1768 23.1785 27.6805 23.1686L27.6762 23.3843L27.6719 23.6C28.4529 23.6156 29.0345 22.8845 28.8455 22.127L28.6361 22.1792ZM27.6762 23.3843L27.6806 23.1686L26.4921 23.1442L26.4877 23.3599L26.4833 23.5756L27.6717 23.6L27.6762 23.3843ZM26.4877 23.3599L26.492 23.1442C25.921 23.1327 25.4225 23.5303 25.3067 24.0896L25.518 24.1333L25.7292 24.1771C25.8029 23.8213 26.1202 23.5683 26.4834 23.5756L26.4877 23.3599ZM25.518 24.1333L25.3067 24.0897L25.0664 25.2528L25.2777 25.2964L25.489 25.34L25.7293 24.177L25.518 24.1333ZM25.2777 25.2964L25.0665 25.2527C24.9657 25.7392 24.4297 25.9974 23.9866 25.7729L23.8891 25.9654L23.7915 26.1578C24.4884 26.5109 25.3306 26.105 25.489 25.3402L25.2777 25.2964ZM23.8891 25.9654L23.9866 25.7729L22.927 25.2358L22.8295 25.4282L22.7319 25.6207L23.7915 26.1578L23.8891 25.9654ZM22.8295 25.4282L22.927 25.2358C22.4177 24.9777 21.7963 25.1189 21.4492 25.5725L21.6205 25.7036L21.7918 25.8348C22.0125 25.5464 22.4078 25.4564 22.732 25.6207L22.8295 25.4282ZM21.6205 25.7036L21.4491 25.5726L20.7274 26.517L20.8988 26.648L21.0703 26.779L21.7919 25.8346L21.6205 25.7036ZM20.8988 26.648L20.7275 26.5169C20.4257 26.9113 19.8311 26.9113 19.5291 26.5168L19.3578 26.648L19.1865 26.7791C19.6611 27.3991 20.5956 27.3994 21.0702 26.7791L20.8988 26.648ZM19.3578 26.648L19.5291 26.5168L18.8065 25.5725L18.6351 25.7036L18.4638 25.8348L19.1865 26.7791L19.3578 26.648ZM18.6351 25.7036L18.8065 25.5725C18.4594 25.1191 17.8389 24.9779 17.3297 25.2358L17.4271 25.4282L17.5246 25.6207C17.8486 25.4566 18.2431 25.5465 18.4638 25.8348L18.6351 25.7036ZM17.4271 25.4282L17.3297 25.2358L16.2691 25.7729L16.3666 25.9654L16.4641 26.1578L17.5246 25.6207L17.4271 25.4282ZM16.3666 25.9654L16.2691 25.7729C15.8261 25.9972 15.2909 25.7393 15.1902 25.2527L14.9789 25.2964L14.7676 25.3402C14.926 26.1048 15.7672 26.5107 16.4641 26.1578L16.3666 25.9654ZM14.9789 25.2964L15.1902 25.2526L14.949 24.0895L14.7377 24.1333L14.5264 24.1771L14.7676 25.3402L14.9789 25.2964ZM14.7377 24.1333L14.949 24.0896C14.8331 23.5303 14.3347 23.1326 13.7636 23.1442L13.768 23.3599L13.7723 23.5756C14.1355 23.5683 14.4527 23.8213 14.5264 24.1771L14.7377 24.1333ZM13.768 23.3599L13.7635 23.1442L12.576 23.1686L12.5805 23.3843L12.5849 23.6L13.7724 23.5756L13.768 23.3599ZM12.5805 23.3843L12.5761 23.1686C12.0794 23.1786 11.7085 22.7135 11.8289 22.2315L11.6195 22.1792L11.4102 22.127C11.221 22.8848 11.8038 23.6158 12.5848 23.6L12.5805 23.3843ZM11.6195 22.1792L11.8289 22.2315L12.1169 21.0782L11.9076 21.0259L11.6983 20.9736L11.4102 22.1269L11.6195 22.1792ZM11.9076 21.0259L12.117 21.0781C12.255 20.5241 11.9785 19.9499 11.4592 19.7125L11.3695 19.9087L11.2798 20.1049C11.6101 20.2559 11.7861 20.6213 11.6983 20.9737L11.9076 21.0259ZM11.3695 19.9087L11.4591 19.7124L10.378 19.2192L10.2885 19.4155L10.1989 19.6118L11.28 20.105L11.3695 19.9087ZM10.2885 19.4155L10.3781 19.2193C9.92634 19.0129 9.79401 18.4327 10.1116 18.0505L9.9457 17.9126L9.77976 17.7747C9.28059 18.3754 9.48826 19.2871 10.1988 19.6118L10.2885 19.4155ZM9.9457 17.9126L10.1115 18.0506L10.8713 17.1375L10.7055 16.9995L10.5396 16.8615L9.77985 17.7746L9.9457 17.9126ZM10.7055 16.9995L10.8714 17.1374C11.2364 16.6982 11.2362 16.0607 10.8714 15.6215L10.7055 15.7593L10.5395 15.8971C10.7716 16.1766 10.7716 16.5824 10.5395 16.8616L10.7055 16.9995ZM10.7055 15.7593L10.8714 15.6214L10.1116 14.7073L9.9457 14.8452L9.77977 14.9831L10.5395 15.8972L10.7055 15.7593ZM9.9457 14.8452L10.1116 14.7073C9.79407 14.3252 9.92625 13.746 10.3781 13.5395L10.2885 13.3433L10.1988 13.147C9.48834 13.4717 9.28053 14.3824 9.77976 14.9831L9.9457 14.8452ZM10.2885 13.3433L10.3782 13.5395L11.4592 13.0454L11.3695 12.8491L11.2798 12.6529L10.1988 13.1471L10.2885 13.3433ZM11.3695 12.8491L11.4593 13.0453C11.9784 12.8079 12.2553 12.2339 12.1169 11.6797L11.9076 11.732L11.6983 11.7842C11.7862 12.1365 11.6102 12.5018 11.2798 12.6529L11.3695 12.8491ZM11.9076 11.732L12.1169 11.6796L11.8288 10.5273L11.6195 10.5796L11.4102 10.6319L11.6983 11.7843L11.9076 11.732ZM11.6195 10.5796L11.8289 10.5274C11.7085 10.0453 12.0794 9.58021 12.5761 9.59024L12.5805 9.37453L12.5848 9.15882C11.8038 9.14304 11.221 9.87403 11.4102 10.6319L11.6195 10.5796ZM12.5805 9.37453L12.576 9.59024L13.7635 9.61466L13.768 9.39894L13.7724 9.18323L12.5849 9.15882L12.5805 9.37453ZM13.768 9.39894L13.7636 9.61466C14.3347 9.62619 14.8331 9.22851 14.949 8.66927L14.7377 8.62551L14.5264 8.58175C14.4527 8.93754 14.1355 9.19057 13.7723 9.18323L13.768 9.39894ZM14.7377 8.62551L14.949 8.66928L15.1902 7.50522L14.9789 7.46144L14.7676 7.41767L14.5264 8.58173L14.7377 8.62551ZM14.9789 7.46144L15.1902 7.50528C15.2911 7.01896 15.826 6.76143 16.2691 6.98594L16.3666 6.79348L16.4641 6.60101C15.7675 6.24804 14.9263 6.65306 14.7676 7.41761L14.9789 7.46144ZM16.3666 6.79348L16.2691 6.98595L17.3297 7.52306L17.4271 7.33058L17.5246 7.13811L16.4641 6.601L16.3666 6.79348ZM17.4271 7.33058L17.3297 7.52309C17.8393 7.78099 18.4597 7.63867 18.8065 7.18531L18.6351 7.05422L18.4638 6.92312C18.243 7.2117 17.8484 7.30201 17.5246 7.13808L17.4271 7.33058ZM18.6351 7.05422L18.8064 7.18542L19.5291 6.24206L19.3578 6.11086L19.1865 5.97965L18.4639 6.92301L18.6351 7.05422ZM19.7758 7.86574V7.64998C15.4338 7.64998 11.9135 11.1703 11.9135 15.5122H12.1293H12.345C12.345 11.4086 15.6722 8.0815 19.7758 8.0815V7.86574ZM12.1293 15.5122L11.9136 15.5176L11.9234 15.9102L12.1391 15.9048L12.3547 15.8994L12.345 15.5069L12.1293 15.5122ZM12.1391 15.9048L11.9236 15.9157C12.1273 19.9361 15.3509 23.1599 19.3713 23.3634L19.3822 23.148L19.3931 22.9325C15.5939 22.7401 12.547 19.6931 12.3545 15.8939L12.1391 15.9048ZM19.3822 23.148L19.3769 23.3637L19.7704 23.3734L19.7758 23.1577L19.7811 22.942L19.3876 22.9323L19.3822 23.148ZM19.7758 23.1577L19.7758 23.3735C23.9819 23.3731 27.4166 20.0697 27.627 15.9157L27.4115 15.9048L27.196 15.8939C26.9972 19.8195 23.7509 22.9416 19.7758 22.942L19.7758 23.1577ZM27.4115 15.9048L27.6272 15.9102L27.637 15.5176L27.4213 15.5122L27.2056 15.5069L27.1958 15.8994L27.4115 15.9048ZM27.4213 15.5122H27.637C27.637 11.3058 24.3335 7.87048 20.1793 7.66003L20.1684 7.87551L20.1574 8.09099C24.0833 8.28987 27.2055 11.5368 27.2055 15.5122H27.4213ZM20.1684 7.87551L20.1737 7.65982L19.7811 7.65005L19.7758 7.86574L19.7704 8.08143L20.163 8.0912L20.1684 7.87551ZM19.7758 8.14894L19.7758 8.3647C23.7227 8.36504 26.9223 11.5652 26.9223 15.5122H27.1381H27.3538C27.3538 11.3269 23.961 7.93355 19.7758 7.93319L19.7758 8.14894ZM27.1381 15.5122L26.9223 15.5122C26.922 19.4589 23.7225 22.6584 19.7758 22.6588L19.7758 22.8745L19.7758 23.0903C23.9608 23.0899 27.3535 19.6972 27.3538 15.5122L27.1381 15.5122ZM19.7758 22.8745V22.6588C15.8288 22.6588 12.6286 19.4591 12.6283 15.5122L12.4125 15.5122L12.1967 15.5122C12.1971 19.6975 15.5905 23.0903 19.7758 23.0903V22.8745ZM12.4125 15.5122H12.6283C12.6283 11.565 15.8286 8.3647 19.7758 8.3647V8.14894V7.93319C15.5902 7.93319 12.1967 11.3267 12.1967 15.5122H12.4125ZM20.5912 15.6861C20.6933 15.496 20.6932 15.4959 20.6931 15.4959C20.693 15.4958 20.6929 15.4958 20.6928 15.4957C20.6926 15.4956 20.6923 15.4955 20.6921 15.4953C20.6915 15.495 20.6909 15.4947 20.6901 15.4943C20.6885 15.4935 20.6865 15.4924 20.684 15.4911C20.679 15.4886 20.6721 15.4851 20.6634 15.4808C20.646 15.4724 20.6213 15.4608 20.5897 15.4471C20.5265 15.4197 20.4357 15.3839 20.3206 15.3476C20.0907 15.275 19.7626 15.2002 19.3647 15.1886C18.5634 15.1654 17.4945 15.3996 16.3904 16.3918L16.5346 16.5523L16.6788 16.7127C17.696 15.7987 18.6554 15.5998 19.3521 15.62C19.7032 15.6302 19.9915 15.6962 20.1907 15.7591C20.2903 15.7905 20.3672 15.821 20.4181 15.8431C20.4436 15.8541 20.4625 15.863 20.4745 15.8688C20.4805 15.8717 20.4847 15.8739 20.4872 15.8751C20.4884 15.8758 20.4892 15.8762 20.4895 15.8763C20.4897 15.8764 20.4897 15.8764 20.4896 15.8764C20.4896 15.8764 20.4895 15.8763 20.4894 15.8763C20.4894 15.8763 20.4893 15.8762 20.4893 15.8762C20.4892 15.8762 20.4891 15.8761 20.5912 15.6861ZM16.5346 16.5523L16.3904 16.3918C15.4094 17.2732 15.1156 18.0495 15.2462 18.6981C15.3739 19.332 15.8906 19.7504 16.318 19.964L16.4144 19.771L16.5109 19.578C16.1377 19.3914 15.7591 19.059 15.6692 18.6129C15.5823 18.1814 15.7488 17.5484 16.6788 16.7127L16.5346 16.5523ZM16.4144 19.771L16.318 19.964C16.9264 20.268 17.6013 20.2223 17.9867 20.2153L17.9828 19.9995L17.9789 19.7838C17.5602 19.7914 17.005 19.8249 16.5109 19.578L16.4144 19.771ZM17.9828 19.9995L17.9867 20.2153C18.0925 20.2134 18.1619 20.2285 18.1999 20.2403C18.219 20.2463 18.2308 20.2517 18.2356 20.2541C18.238 20.2553 18.2388 20.2558 18.2379 20.2552C18.2375 20.255 18.2366 20.2545 18.2354 20.2537C18.2348 20.2533 18.234 20.2528 18.2332 20.2523C18.2328 20.252 18.2324 20.2517 18.2319 20.2514C18.2317 20.2513 18.2315 20.2511 18.2312 20.2509C18.2311 20.2509 18.231 20.2508 18.2309 20.2507C18.2308 20.2506 18.2307 20.2506 18.2307 20.2506C18.2306 20.2505 18.2305 20.2504 18.3529 20.0728C18.4754 19.8951 18.4753 19.895 18.4752 19.895C18.4751 19.895 18.475 19.8949 18.475 19.8948C18.4748 19.8948 18.4747 19.8947 18.4746 19.8946C18.4743 19.8944 18.474 19.8942 18.4737 19.894C18.4732 19.8936 18.4726 19.8932 18.4719 19.8928C18.4707 19.892 18.4693 19.8911 18.4678 19.8901C18.4648 19.8882 18.4613 19.886 18.4572 19.8836C18.4492 19.8789 18.4391 19.8733 18.4269 19.8673C18.4025 19.8552 18.3699 19.8414 18.3287 19.8285C18.2459 19.8026 18.1303 19.7811 17.9789 19.7838L17.9828 19.9995ZM18.3529 20.0728C18.2837 20.2771 18.2836 20.2771 18.2835 20.277C18.2834 20.277 18.2833 20.277 18.2832 20.277C18.2831 20.2769 18.283 20.2769 18.2828 20.2768C18.2826 20.2767 18.2823 20.2766 18.282 20.2766C18.2815 20.2764 18.281 20.2762 18.2806 20.276C18.2797 20.2757 18.2789 20.2754 18.2782 20.2752C18.2768 20.2746 18.276 20.2743 18.2755 20.2741C18.2746 20.2737 18.2755 20.274 18.2779 20.2753C18.2828 20.2778 18.2941 20.284 18.3103 20.2957C18.3424 20.3189 18.3958 20.3652 18.4569 20.4504L18.6322 20.3247L18.8076 20.199C18.7197 20.0764 18.6334 19.9968 18.5631 19.946C18.5281 19.9207 18.4975 19.9029 18.4733 19.8906C18.4612 19.8844 18.4507 19.8797 18.4421 19.8761C18.4378 19.8743 18.434 19.8727 18.4307 19.8715C18.429 19.8708 18.4274 19.8703 18.426 19.8698C18.4253 19.8695 18.4246 19.8693 18.424 19.8691C18.4237 19.8689 18.4234 19.8688 18.4231 19.8687C18.4229 19.8687 18.4228 19.8686 18.4226 19.8686C18.4225 19.8686 18.4224 19.8685 18.4224 19.8685C18.4223 19.8685 18.4222 19.8684 18.3529 20.0728ZM18.6322 20.3247L18.4569 20.4505C18.6801 20.7617 19.0436 21.3258 19.6519 21.63L19.7484 21.437L19.8449 21.2441C19.3515 20.9973 19.0498 20.5368 18.8075 20.199L18.6322 20.3247ZM19.7484 21.437L19.652 21.63C20.0798 21.8438 20.7253 22.0063 21.3143 21.7329C21.9171 21.4531 22.3745 20.7594 22.509 19.4533L22.2943 19.4312L22.0797 19.4091C21.9526 20.6444 21.5373 21.1537 21.1327 21.3415C20.7143 21.5356 20.2177 21.4303 19.8449 21.244L19.7484 21.437ZM22.2943 19.4312L22.509 19.4532C22.8108 16.5189 20.748 15.5214 20.683 15.4908L20.5912 15.6861L20.4994 15.8813C20.4994 15.8813 20.9646 16.1004 21.3937 16.649C21.8185 17.192 22.2175 18.0692 22.0797 19.4091L22.2943 19.4312ZM25.4516 17.0601L25.609 16.9125C24.9982 16.2611 23.9226 16.3471 23.2138 16.9978L23.3598 17.1568L23.5057 17.3157C24.0922 16.7773 24.8896 16.7761 25.2942 17.2076L25.4516 17.0601ZM23.3598 17.1568L23.2138 16.9979C22.5047 17.6492 22.3359 18.7084 22.9484 19.3619L23.1059 19.2144L23.2633 19.0668C22.8606 18.6372 22.9197 17.8539 23.5057 17.3157L23.3598 17.1568ZM23.1059 19.2144L22.9485 19.3619C23.5592 20.0133 24.6348 19.9274 25.3436 19.2766L25.1976 19.1177L25.0517 18.9588C24.4653 19.4972 23.6678 19.4983 23.2633 19.0668L23.1059 19.2144ZM25.1976 19.1177L25.3436 19.2766C26.0526 18.6252 26.2217 17.566 25.609 16.9125L25.4516 17.0601L25.2942 17.2076C25.6969 17.6372 25.6377 18.4205 25.0517 18.9588L25.1976 19.1177ZM24.2435 13.1157L24.3596 12.9338C23.5187 12.3975 22.3727 12.7805 21.7815 13.6884L21.9623 13.8062L22.1431 13.9239C22.6423 13.1573 23.5391 12.9224 24.1275 13.2976L24.2435 13.1157ZM21.9623 13.8062L21.7815 13.6884C21.1901 14.5968 21.3098 15.7921 22.1529 16.3299L22.2689 16.148L22.385 15.9661C21.7988 15.5922 21.6442 14.6901 22.1431 13.9239L21.9623 13.8062ZM22.2689 16.148L22.1529 16.3299C22.994 16.8661 24.14 16.482 24.731 15.5743L24.5502 15.4566L24.3694 15.3388C23.8701 16.1056 22.9732 16.3411 22.3849 15.966L22.2689 16.148ZM24.5502 15.4566L24.731 15.5743C25.3222 14.6661 25.2022 13.4718 24.3596 12.9339L24.2435 13.1157L24.1274 13.2976C24.7134 13.6717 24.868 14.5729 24.3694 15.3389L24.5502 15.4566ZM16.5873 12.6304L16.6112 12.416C15.7208 12.3165 14.9592 13.0758 14.8505 14.0298L15.0648 14.0542L15.2792 14.0787C15.3686 13.2949 15.9706 12.7786 16.5634 12.8448L16.5873 12.6304ZM15.0648 14.0542L14.8505 14.0298C14.7418 14.984 15.3141 15.8927 16.2049 15.9923L16.2289 15.7779L16.2529 15.5634C15.6606 15.4973 15.19 14.8622 15.2792 14.0786L15.0648 14.0542ZM16.2289 15.7779L16.205 15.9923C17.0953 16.0914 17.856 15.3321 17.9648 14.3785L17.7504 14.354L17.536 14.3296C17.4467 15.1133 16.8454 15.6294 16.2528 15.5634L16.2289 15.7779ZM17.7504 14.354L17.9648 14.3785C18.0736 13.4244 17.5023 12.5155 16.6113 12.416L16.5873 12.6304L16.5633 12.8448C17.1555 12.911 17.6254 13.5459 17.536 14.3296L17.7504 14.354ZM20.5121 11.2505L20.5879 11.0485C19.6529 10.6974 18.6121 11.3092 18.2247 12.3198L18.4262 12.397L18.6276 12.4742C18.9542 11.6223 19.7814 11.2066 20.4363 11.4525L20.5121 11.2505ZM18.4262 12.397L18.2247 12.3198C17.8373 13.3309 18.2068 14.4739 19.1433 14.8255L19.2191 14.6236L19.295 14.4216C18.6419 14.1763 18.3014 13.3256 18.6276 12.4742L18.4262 12.397ZM19.2191 14.6236L19.1433 14.8256C20.078 15.1763 21.1189 14.5659 21.5065 13.5553L21.3051 13.478L21.1036 13.4008C20.777 14.2524 19.9499 14.6673 19.2949 14.4215L19.2191 14.6236ZM21.3051 13.478L21.5065 13.5553C21.8941 12.5442 21.5244 11.4004 20.588 11.0485L20.5121 11.2505L20.4362 11.4525C21.0894 11.6979 21.4299 12.5494 21.1036 13.4008L21.3051 13.478Z" fill="white" mask="url(#path-15-inside-1_4_4937)"/>
</g>
<g filter="url(#filter2_d_4_4937)">
<mask id="path-17-inside-2_4_4937" fill="white">
<path d="M19.1225 5.62548C19.5107 5.11799 20.2743 5.11802 20.6626 5.62548L21.3852 6.56884C21.6691 6.93995 22.1774 7.05639 22.5942 6.8452L23.6538 6.30809C24.2237 6.01932 24.9127 6.35053 25.0424 6.97606L25.2827 8.14013C25.3774 8.59765 25.7853 8.92298 26.2524 8.91356L27.4409 8.88915C28.0795 8.87646 28.5555 9.47438 28.4008 10.0942L28.1137 11.2466C28.0006 11.6999 28.2268 12.1696 28.6518 12.3638L29.7319 12.8579C30.3131 13.1235 30.4831 13.8684 30.0747 14.3599L29.3159 15.2739C29.0172 15.6333 29.0172 16.1548 29.3159 16.5141L30.0747 17.4272C30.4831 17.9187 30.3131 18.6646 29.7319 18.9302L28.6518 19.4233C28.2269 19.6175 28.0007 20.0872 28.1137 20.5405L28.4008 21.6938C28.5555 22.3137 28.0795 22.9116 27.4409 22.8989L26.2524 22.8745C25.7853 22.8651 25.3774 23.1904 25.2827 23.6479L25.0424 24.811C24.9129 25.4367 24.2237 25.7687 23.6538 25.48L22.5942 24.9429C22.1775 24.7317 21.6691 24.8473 21.3852 25.2183L20.6626 26.1626C20.2743 26.6696 19.5107 26.6697 19.1225 26.1626L18.3999 25.2183C18.116 24.8474 17.6085 24.7319 17.1919 24.9429L16.1313 25.48C15.5614 25.7687 14.8732 25.4367 14.7436 24.811L14.5024 23.6479C14.4076 23.1904 13.9998 22.8651 13.5327 22.8745L12.3442 22.8989C11.7056 22.9115 11.2295 22.3136 11.3842 21.6938L11.6713 20.5405C11.7844 20.0873 11.559 19.6175 11.1342 19.4233L10.0532 18.9302C9.47201 18.6646 9.30201 17.9187 9.71041 17.4272L10.4692 16.5141C10.7678 16.1548 10.7678 15.6333 10.4692 15.2739L9.71041 14.3599C9.30201 13.8684 9.47201 13.1235 10.0532 12.8579L11.1342 12.3638C11.559 12.1695 11.7845 11.6998 11.6713 11.2466L11.3842 10.0942C11.2295 9.47442 11.7056 8.87654 12.3442 8.88915L13.5327 8.91356C13.9998 8.923 14.4076 8.59766 14.5024 8.14013L14.7436 6.97606C14.8734 6.35064 15.5615 6.01935 16.1313 6.30809L17.1919 6.8452C17.6086 7.05608 18.1161 6.93982 18.3999 6.56884L19.1225 5.62548ZM20.0581 8.14794C15.8353 8.14794 12.4116 11.5716 12.4116 15.7944L12.4213 16.187C12.6194 20.0969 15.7546 23.2322 19.6645 23.4302L20.0581 23.4399C24.1487 23.4396 27.4892 20.2269 27.6938 16.187L27.7036 15.7944C27.7036 11.7035 24.4907 8.36235 20.4506 8.1577L20.0581 8.14794ZM20.0581 8.43114C24.1242 8.43147 27.4204 11.7282 27.4204 15.7944C27.4201 19.8604 24.124 23.1564 20.0581 23.1567C15.9919 23.1567 12.6951 19.8606 12.6948 15.7944C12.6948 11.728 15.9917 8.43114 20.0581 8.43114ZM20.3549 15.2007C20.3326 15.1888 18.4083 14.1718 16.2993 16.0669C14.3883 17.784 15.3786 18.8854 16.1792 19.2856C16.7304 19.5611 17.3454 19.5215 17.7475 19.5141C18.0046 19.5096 18.1176 19.5874 18.1176 19.5874C18.1209 19.5885 18.2499 19.6342 18.3969 19.8393C18.6297 20.1639 18.9622 20.6762 19.5131 20.9516C20.3137 21.3517 21.7974 21.4873 22.059 18.9458C22.3493 16.1244 20.3549 15.2007 20.3549 15.2007ZM25.2163 16.5747C24.7086 16.0332 23.7721 16.0769 23.1245 16.6714C22.4769 17.2662 22.3629 18.1874 22.8706 18.729C23.3782 19.2705 24.3147 19.227 24.9624 18.6323C25.6098 18.0375 25.724 17.1162 25.2163 16.5747ZM24.0083 12.6304C23.2936 12.1745 22.2722 12.4836 21.727 13.3208C21.1818 14.1581 21.319 15.2068 22.0336 15.6626C22.7483 16.1182 23.7698 15.8084 24.3149 14.9712C24.8597 14.1341 24.7225 13.0864 24.0083 12.6304ZM16.352 12.145C15.6104 12.0622 14.9286 12.7 14.8295 13.5688C14.7306 14.4376 15.2513 15.2094 15.9926 15.2925C16.7343 15.3753 17.416 14.7375 17.5151 13.8686C17.6142 12.9998 17.0936 12.2279 16.352 12.145ZM20.2758 10.7651C19.481 10.4671 18.5478 10.9806 18.1909 11.9116C17.8341 12.8429 18.1891 13.8397 18.9838 14.1382C19.7787 14.4364 20.7127 13.9237 21.0698 12.9927C21.4268 12.0613 21.0708 11.0636 20.2758 10.7651Z"/>
</mask>
<path d="M19.1225 5.62548C19.5107 5.11799 20.2743 5.11802 20.6626 5.62548L21.3852 6.56884C21.6691 6.93995 22.1774 7.05639 22.5942 6.8452L23.6538 6.30809C24.2237 6.01932 24.9127 6.35053 25.0424 6.97606L25.2827 8.14013C25.3774 8.59765 25.7853 8.92298 26.2524 8.91356L27.4409 8.88915C28.0795 8.87646 28.5555 9.47438 28.4008 10.0942L28.1137 11.2466C28.0006 11.6999 28.2268 12.1696 28.6518 12.3638L29.7319 12.8579C30.3131 13.1235 30.4831 13.8684 30.0747 14.3599L29.3159 15.2739C29.0172 15.6333 29.0172 16.1548 29.3159 16.5141L30.0747 17.4272C30.4831 17.9187 30.3131 18.6646 29.7319 18.9302L28.6518 19.4233C28.2269 19.6175 28.0007 20.0872 28.1137 20.5405L28.4008 21.6938C28.5555 22.3137 28.0795 22.9116 27.4409 22.8989L26.2524 22.8745C25.7853 22.8651 25.3774 23.1904 25.2827 23.6479L25.0424 24.811C24.9129 25.4367 24.2237 25.7687 23.6538 25.48L22.5942 24.9429C22.1775 24.7317 21.6691 24.8473 21.3852 25.2183L20.6626 26.1626C20.2743 26.6696 19.5107 26.6697 19.1225 26.1626L18.3999 25.2183C18.116 24.8474 17.6085 24.7319 17.1919 24.9429L16.1313 25.48C15.5614 25.7687 14.8732 25.4367 14.7436 24.811L14.5024 23.6479C14.4076 23.1904 13.9998 22.8651 13.5327 22.8745L12.3442 22.8989C11.7056 22.9115 11.2295 22.3136 11.3842 21.6938L11.6713 20.5405C11.7844 20.0873 11.559 19.6175 11.1342 19.4233L10.0532 18.9302C9.47201 18.6646 9.30201 17.9187 9.71041 17.4272L10.4692 16.5141C10.7678 16.1548 10.7678 15.6333 10.4692 15.2739L9.71041 14.3599C9.30201 13.8684 9.47201 13.1235 10.0532 12.8579L11.1342 12.3638C11.559 12.1695 11.7845 11.6998 11.6713 11.2466L11.3842 10.0942C11.2295 9.47442 11.7056 8.87654 12.3442 8.88915L13.5327 8.91356C13.9998 8.923 14.4076 8.59766 14.5024 8.14013L14.7436 6.97606C14.8734 6.35064 15.5615 6.01935 16.1313 6.30809L17.1919 6.8452C17.6086 7.05608 18.1161 6.93982 18.3999 6.56884L19.1225 5.62548ZM20.0581 8.14794C15.8353 8.14794 12.4116 11.5716 12.4116 15.7944L12.4213 16.187C12.6194 20.0969 15.7546 23.2322 19.6645 23.4302L20.0581 23.4399C24.1487 23.4396 27.4892 20.2269 27.6938 16.187L27.7036 15.7944C27.7036 11.7035 24.4907 8.36235 20.4506 8.1577L20.0581 8.14794ZM20.0581 8.43114C24.1242 8.43147 27.4204 11.7282 27.4204 15.7944C27.4201 19.8604 24.124 23.1564 20.0581 23.1567C15.9919 23.1567 12.6951 19.8606 12.6948 15.7944C12.6948 11.728 15.9917 8.43114 20.0581 8.43114ZM20.3549 15.2007C20.3326 15.1888 18.4083 14.1718 16.2993 16.0669C14.3883 17.784 15.3786 18.8854 16.1792 19.2856C16.7304 19.5611 17.3454 19.5215 17.7475 19.5141C18.0046 19.5096 18.1176 19.5874 18.1176 19.5874C18.1209 19.5885 18.2499 19.6342 18.3969 19.8393C18.6297 20.1639 18.9622 20.6762 19.5131 20.9516C20.3137 21.3517 21.7974 21.4873 22.059 18.9458C22.3493 16.1244 20.3549 15.2007 20.3549 15.2007ZM25.2163 16.5747C24.7086 16.0332 23.7721 16.0769 23.1245 16.6714C22.4769 17.2662 22.3629 18.1874 22.8706 18.729C23.3782 19.2705 24.3147 19.227 24.9624 18.6323C25.6098 18.0375 25.724 17.1162 25.2163 16.5747ZM24.0083 12.6304C23.2936 12.1745 22.2722 12.4836 21.727 13.3208C21.1818 14.1581 21.319 15.2068 22.0336 15.6626C22.7483 16.1182 23.7698 15.8084 24.3149 14.9712C24.8597 14.1341 24.7225 13.0864 24.0083 12.6304ZM16.352 12.145C15.6104 12.0622 14.9286 12.7 14.8295 13.5688C14.7306 14.4376 15.2513 15.2094 15.9926 15.2925C16.7343 15.3753 17.416 14.7375 17.5151 13.8686C17.6142 12.9998 17.0936 12.2279 16.352 12.145ZM20.2758 10.7651C19.481 10.4671 18.5478 10.9806 18.1909 11.9116C17.8341 12.8429 18.1891 13.8397 18.9838 14.1382C19.7787 14.4364 20.7127 13.9237 21.0698 12.9927C21.4268 12.0613 21.0708 11.0636 20.2758 10.7651Z" fill="url(#paint5_linear_4_4937)"/>
<path d="M19.1225 5.62548L19.2938 5.75668L19.2939 5.75657L19.1225 5.62548ZM20.6626 5.62548L20.4912 5.75658L20.4913 5.75668L20.6626 5.62548ZM21.3852 6.56884L21.5566 6.43775L21.5565 6.43763L21.3852 6.56884ZM22.5942 6.8452L22.6917 7.03766L22.6917 7.03765L22.5942 6.8452ZM23.6538 6.30809L23.5562 6.11563L23.5562 6.11565L23.6538 6.30809ZM25.0424 6.97606L25.2537 6.93245L25.2537 6.93226L25.0424 6.97606ZM25.2827 8.14013L25.0714 8.18373L25.0714 8.18388L25.2827 8.14013ZM26.2524 8.91356L26.2567 9.12928L26.2568 9.12927L26.2524 8.91356ZM27.4409 8.88915L27.4366 8.67343L27.4364 8.67344L27.4409 8.88915ZM28.4008 10.0942L28.1915 10.042L28.1915 10.0421L28.4008 10.0942ZM28.1137 11.2466L28.3231 11.2988L28.3231 11.2987L28.1137 11.2466ZM28.6518 12.3638L28.7416 12.1676L28.7415 12.1675L28.6518 12.3638ZM29.7319 12.8579L29.6421 13.0541L29.6422 13.0541L29.7319 12.8579ZM30.0747 14.3599L29.9087 14.222L29.9087 14.222L30.0747 14.3599ZM29.3159 15.2739L29.4818 15.4118L29.4819 15.4117L29.3159 15.2739ZM29.3159 16.5141L29.4818 16.3763L29.4818 16.3762L29.3159 16.5141ZM30.0747 17.4272L29.9087 17.5651L29.9087 17.5651L30.0747 17.4272ZM29.7319 18.9302L29.8215 19.1264L29.8216 19.1264L29.7319 18.9302ZM28.6518 19.4233L28.5622 19.2271L28.5621 19.2271L28.6518 19.4233ZM28.1137 20.5405L28.3231 20.4884L28.3231 20.4883L28.1137 20.5405ZM28.4008 21.6938L28.1915 21.746L28.1915 21.7461L28.4008 21.6938ZM27.4409 22.8989L27.4364 23.1146L27.4366 23.1146L27.4409 22.8989ZM26.2524 22.8745L26.2568 22.6588H26.2568L26.2524 22.8745ZM25.2827 23.6479L25.0714 23.6042L25.0714 23.6043L25.2827 23.6479ZM25.0424 24.811L25.2537 24.8548L25.2537 24.8547L25.0424 24.811ZM23.6538 25.48L23.5562 25.6724L23.5563 25.6724L23.6538 25.48ZM22.5942 24.9429L22.6917 24.7504L22.6917 24.7504L22.5942 24.9429ZM21.3852 25.2183L21.2139 25.0871L21.2139 25.0871L21.3852 25.2183ZM20.6626 26.1626L20.8339 26.2938L20.8339 26.2937L20.6626 26.1626ZM19.1225 26.1626L18.9512 26.2937L18.9512 26.2937L19.1225 26.1626ZM18.3999 25.2183L18.5712 25.0871L18.5712 25.0871L18.3999 25.2183ZM17.1919 24.9429L17.0944 24.7504L17.0944 24.7504L17.1919 24.9429ZM16.1313 25.48L16.0338 25.2875L16.0338 25.2875L16.1313 25.48ZM14.7436 24.811L14.9549 24.7673L14.9549 24.7672L14.7436 24.811ZM14.5024 23.6479L14.2911 23.6917L14.2911 23.6918L14.5024 23.6479ZM13.5327 22.8745L13.5283 22.6588H13.5282L13.5327 22.8745ZM12.3442 22.8989L12.3485 23.1146L12.3486 23.1146L12.3442 22.8989ZM11.3842 21.6938L11.5936 21.7461L11.5936 21.746L11.3842 21.6938ZM11.6713 20.5405L11.462 20.4883L11.462 20.4884L11.6713 20.5405ZM11.1342 19.4233L11.224 19.2271L11.2238 19.227L11.1342 19.4233ZM10.0532 18.9302L9.96351 19.1264L9.96363 19.1265L10.0532 18.9302ZM9.71041 17.4272L9.87634 17.5651L9.87634 17.5651L9.71041 17.4272ZM10.4692 16.5141L10.3033 16.3762L10.3033 16.3763L10.4692 16.5141ZM10.4692 15.2739L10.3032 15.4117L10.3033 15.4118L10.4692 15.2739ZM9.71041 14.3599L9.87642 14.222L9.87634 14.222L9.71041 14.3599ZM10.0532 12.8579L10.1428 13.0541L10.1429 13.0541L10.0532 12.8579ZM11.1342 12.3638L11.2239 12.56L11.224 12.56L11.1342 12.3638ZM11.6713 11.2466L11.462 11.2987L11.462 11.2988L11.6713 11.2466ZM11.3842 10.0942L11.5936 10.0421L11.5936 10.042L11.3842 10.0942ZM12.3442 8.88915L12.3486 8.67344L12.3485 8.67343L12.3442 8.88915ZM13.5327 8.91356L13.5282 9.12927L13.5283 9.12928L13.5327 8.91356ZM14.5024 8.14013L14.2911 8.09635L14.2911 8.09637L14.5024 8.14013ZM14.7436 6.97606L14.5324 6.93222L14.5323 6.93228L14.7436 6.97606ZM16.1313 6.30809L16.0338 6.50055L16.0338 6.50057L16.1313 6.30809ZM17.1919 6.8452L17.0944 7.03768L17.0944 7.03771L17.1919 6.8452ZM18.3999 6.56884L18.2286 6.43763L18.2285 6.43775L18.3999 6.56884ZM20.0581 8.14794L20.0634 7.93218H20.0581V8.14794ZM12.4116 15.7944H12.1958L12.1959 15.7998L12.4116 15.7944ZM12.4213 16.187L12.2056 16.1924L12.2059 16.1979L12.4213 16.187ZM19.6645 23.4302L19.6536 23.6457L19.6592 23.6459L19.6645 23.4302ZM20.0581 23.4399L20.0527 23.6557H20.0581L20.0581 23.4399ZM27.6938 16.187L27.9094 16.1979L27.9095 16.1924L27.6938 16.187ZM27.7036 15.7944L27.9193 15.7998V15.7944H27.7036ZM20.4506 8.1577L20.4616 7.94215L20.456 7.94201L20.4506 8.1577ZM20.0581 8.43114L20.0581 8.21538H20.0581V8.43114ZM27.4204 15.7944L27.6361 15.7944V15.7944H27.4204ZM20.0581 23.1567V23.3725H20.0581L20.0581 23.1567ZM12.6948 15.7944H12.479V15.7944L12.6948 15.7944ZM20.3549 15.2007L20.2533 15.3914L20.2643 15.3965L20.3549 15.2007ZM16.2993 16.0669L16.1551 15.9064L16.1551 15.9064L16.2993 16.0669ZM16.1792 19.2856L16.0827 19.4786L16.0827 19.4786L16.1792 19.2856ZM17.7475 19.5141L17.7437 19.2984L17.7436 19.2984L17.7475 19.5141ZM18.1176 19.5874L17.9953 19.7651L18.0195 19.7818L18.0474 19.7914L18.1176 19.5874ZM18.3969 19.8393L18.2216 19.9651L18.2216 19.9651L18.3969 19.8393ZM19.5131 20.9516L19.4167 21.1446L19.4167 21.1446L19.5131 20.9516ZM22.059 18.9458L22.2737 18.9679L22.2737 18.9679L22.059 18.9458ZM25.2163 16.5747L25.3737 16.4271L25.3737 16.4271L25.2163 16.5747ZM23.1245 16.6714L22.9786 16.5124L22.9785 16.5125L23.1245 16.6714ZM22.8706 18.729L22.7132 18.8766L22.7132 18.8766L22.8706 18.729ZM24.9624 18.6323L25.1083 18.7912L25.1083 18.7912L24.9624 18.6323ZM24.0083 12.6304L24.1244 12.4485L24.1243 12.4485L24.0083 12.6304ZM21.727 13.3208L21.5462 13.2031L21.5462 13.2031L21.727 13.3208ZM22.0336 15.6626L21.9176 15.8445L21.9177 15.8445L22.0336 15.6626ZM24.3149 14.9712L24.4957 15.0889L24.4957 15.0889L24.3149 14.9712ZM16.352 12.145L16.376 11.9306L16.376 11.9306L16.352 12.145ZM14.8295 13.5688L14.6152 13.5444L14.6152 13.5444L14.8295 13.5688ZM15.9926 15.2925L15.9686 15.5069L15.9687 15.5069L15.9926 15.2925ZM17.5151 13.8686L17.3007 13.8442L17.3007 13.8442L17.5151 13.8686ZM20.2758 10.7651L20.3517 10.5631L20.3516 10.5631L20.2758 10.7651ZM18.1909 11.9116L17.9894 11.8344L17.9894 11.8344L18.1909 11.9116ZM18.9838 14.1382L18.908 14.3402L18.9081 14.3402L18.9838 14.1382ZM21.0698 12.9927L21.2712 13.0699L21.2712 13.0699L21.0698 12.9927ZM19.1225 5.62548L19.2939 5.75657C19.5957 5.36198 20.1893 5.36198 20.4912 5.75658L20.6626 5.62548L20.8339 5.49438C20.3593 4.87406 19.4257 4.87399 18.9511 5.49439L19.1225 5.62548ZM20.6626 5.62548L20.4913 5.75668L21.2139 6.70004L21.3852 6.56884L21.5565 6.43763L20.8338 5.49427L20.6626 5.62548ZM21.3852 6.56884L21.2138 6.69992C21.5608 7.15345 22.1821 7.29591 22.6917 7.03766L22.5942 6.8452L22.4967 6.65274C22.1728 6.81688 21.7774 6.72645 21.5566 6.43775L21.3852 6.56884ZM22.5942 6.8452L22.6917 7.03765L23.7513 6.50054L23.6538 6.30809L23.5562 6.11565L22.4966 6.65276L22.5942 6.8452ZM23.6538 6.30809L23.7513 6.50055C24.1946 6.27593 24.7304 6.53368 24.8312 7.01987L25.0424 6.97606L25.2537 6.93226C25.0951 6.16738 24.2527 5.76272 23.5562 6.11563L23.6538 6.30809ZM25.0424 6.97606L24.8311 7.01967L25.0714 8.18373L25.2827 8.14013L25.494 8.09652L25.2537 6.93245L25.0424 6.97606ZM25.2827 8.14013L25.0714 8.18388C25.1872 8.74315 25.6857 9.14079 26.2567 9.12928L26.2524 8.91356L26.248 8.69785C25.8849 8.70517 25.5676 8.45215 25.4939 8.09637L25.2827 8.14013ZM26.2524 8.91356L26.2568 9.12927L27.4453 9.10486L27.4409 8.88915L27.4364 8.67344L26.248 8.69785L26.2524 8.91356ZM27.4409 8.88915L27.4452 9.10486C27.9415 9.095 28.3119 9.55979 28.1915 10.042L28.4008 10.0942L28.6102 10.1465C28.7992 9.38897 28.2176 8.65792 27.4366 8.67343L27.4409 8.88915ZM28.4008 10.0942L28.1915 10.0421L27.9044 11.1944L28.1137 11.2466L28.3231 11.2987L28.6102 10.1464L28.4008 10.0942ZM28.1137 11.2466L27.9044 11.1943C27.7661 11.7485 28.0427 12.3226 28.5621 12.56L28.6518 12.3638L28.7415 12.1675C28.411 12.0165 28.2351 11.6513 28.3231 11.2988L28.1137 11.2466ZM28.6518 12.3638L28.5621 12.56L29.6421 13.0541L29.7319 12.8579L29.8217 12.6617L28.7416 12.1676L28.6518 12.3638ZM29.7319 12.8579L29.6422 13.0541C30.0941 13.2606 30.2263 13.8398 29.9087 14.222L30.0747 14.3599L30.2406 14.4978C30.7398 13.897 30.532 12.9863 29.8216 12.6617L29.7319 12.8579ZM30.0747 14.3599L29.9087 14.222L29.1499 15.1361L29.3159 15.2739L29.4819 15.4117L30.2407 14.4977L30.0747 14.3599ZM29.3159 15.2739L29.1499 15.136C28.7849 15.5753 28.7849 16.2128 29.1499 16.6521L29.3159 16.5141L29.4818 16.3762C29.2496 16.0968 29.2496 15.6912 29.4818 15.4118L29.3159 15.2739ZM29.3159 16.5141L29.1499 16.652L29.9087 17.5651L30.0747 17.4272L30.2406 17.2893L29.4818 16.3763L29.3159 16.5141ZM30.0747 17.4272L29.9087 17.5651C30.2264 17.9473 30.094 18.5275 29.6422 18.7339L29.7319 18.9302L29.8216 19.1264C30.5321 18.8017 30.7398 17.89 30.2406 17.2893L30.0747 17.4272ZM29.7319 18.9302L29.6423 18.7339L28.5622 19.2271L28.6518 19.4233L28.7414 19.6196L29.8215 19.1264L29.7319 18.9302ZM28.6518 19.4233L28.5621 19.2271C28.0427 19.4644 27.7662 20.0386 27.9044 20.5927L28.1137 20.5405L28.3231 20.4883C28.2352 20.1358 28.4111 19.7705 28.7415 19.6196L28.6518 19.4233ZM28.1137 20.5405L27.9044 20.5926L28.1915 21.746L28.4008 21.6938L28.6102 21.6417L28.3231 20.4884L28.1137 20.5405ZM28.4008 21.6938L28.1915 21.7461C28.3119 22.2283 27.9415 22.6931 27.4452 22.6832L27.4409 22.8989L27.4366 23.1146C28.2176 23.1301 28.7992 22.3991 28.6102 21.6416L28.4008 21.6938ZM27.4409 22.8989L27.4453 22.6832L26.2568 22.6588L26.2524 22.8745L26.248 23.0902L27.4364 23.1146L27.4409 22.8989ZM26.2524 22.8745L26.2568 22.6588C25.6857 22.6473 25.1872 23.0449 25.0714 23.6042L25.2827 23.6479L25.4939 23.6917C25.5676 23.3359 25.8848 23.0829 26.248 23.0902L26.2524 22.8745ZM25.2827 23.6479L25.0714 23.6043L24.8311 24.7674L25.0424 24.811L25.2537 24.8547L25.494 23.6916L25.2827 23.6479ZM25.0424 24.811L24.8312 24.7673C24.7304 25.2538 24.1944 25.512 23.7513 25.2875L23.6538 25.48L23.5563 25.6724C24.2531 26.0255 25.0953 25.6196 25.2537 24.8548L25.0424 24.811ZM23.6538 25.48L23.7513 25.2875L22.6917 24.7504L22.5942 24.9429L22.4966 25.1353L23.5562 25.6724L23.6538 25.48ZM22.5942 24.9429L22.6917 24.7504C22.1825 24.4924 21.561 24.6336 21.2139 25.0871L21.3852 25.2183L21.5565 25.3494C21.7772 25.0611 22.1725 24.9711 22.4967 25.1353L22.5942 24.9429ZM21.3852 25.2183L21.2139 25.0871L20.4912 26.0315L20.6626 26.1626L20.8339 26.2937L21.5566 25.3494L21.3852 25.2183ZM20.6626 26.1626L20.4912 26.0314C20.1894 26.4257 19.5957 26.4257 19.2938 26.0314L19.1225 26.1626L18.9512 26.2937C19.4258 26.9136 20.3593 26.9136 20.8339 26.2938L20.6626 26.1626ZM19.1225 26.1626L19.2939 26.0315L18.5712 25.0871L18.3999 25.2183L18.2285 25.3494L18.9512 26.2937L19.1225 26.1626ZM18.3999 25.2183L18.5712 25.0871C18.2241 24.6337 17.6036 24.4925 17.0944 24.7504L17.1919 24.9429L17.2893 25.1353C17.6134 24.9713 18.0079 25.0612 18.2285 25.3494L18.3999 25.2183ZM17.1919 24.9429L17.0944 24.7504L16.0338 25.2875L16.1313 25.48L16.2288 25.6724L17.2893 25.1353L17.1919 24.9429ZM16.1313 25.48L16.0338 25.2875C15.5908 25.5119 15.0557 25.2539 14.9549 24.7673L14.7436 24.811L14.5323 24.8548C14.6907 25.6194 15.5319 26.0254 16.2288 25.6724L16.1313 25.48ZM14.7436 24.811L14.9549 24.7672L14.7137 23.6041L14.5024 23.6479L14.2911 23.6918L14.5323 24.8548L14.7436 24.811ZM14.5024 23.6479L14.7137 23.6042C14.5979 23.0449 14.0994 22.6473 13.5283 22.6588L13.5327 22.8745L13.537 23.0902C13.9002 23.0829 14.2174 23.3359 14.2911 23.6917L14.5024 23.6479ZM13.5327 22.8745L13.5282 22.6588L12.3398 22.6832L12.3442 22.8989L12.3486 23.1146L13.5371 23.0902L13.5327 22.8745ZM12.3442 22.8989L12.3399 22.6832C11.8436 22.693 11.4732 22.2282 11.5936 21.7461L11.3842 21.6938L11.1749 21.6416C10.9858 22.3991 11.5676 23.13 12.3485 23.1146L12.3442 22.8989ZM11.3842 21.6938L11.5936 21.746L11.8807 20.5926L11.6713 20.5405L11.462 20.4884L11.1749 21.6417L11.3842 21.6938ZM11.6713 20.5405L11.8807 20.5927C12.0188 20.039 11.7435 19.4647 11.224 19.2271L11.1342 19.4233L11.0445 19.6195C11.3745 19.7704 11.55 20.1356 11.462 20.4883L11.6713 20.5405ZM11.1342 19.4233L11.2238 19.227L10.1427 18.7339L10.0532 18.9302L9.96363 19.1265L11.0447 19.6196L11.1342 19.4233ZM10.0532 18.9302L10.1428 18.7339C9.69105 18.5275 9.55872 17.9473 9.87634 17.5651L9.71041 17.4272L9.54447 17.2893C9.04529 17.89 9.25296 18.8017 9.96351 19.1264L10.0532 18.9302ZM9.71041 17.4272L9.87634 17.5651L10.6351 16.652L10.4692 16.5141L10.3033 16.3763L9.54447 17.2893L9.71041 17.4272ZM10.4692 16.5141L10.6351 16.6521C11.0002 16.2128 11.0002 15.5753 10.6351 15.136L10.4692 15.2739L10.3033 15.4118C10.5355 15.6912 10.5355 16.0968 10.3033 16.3762L10.4692 16.5141ZM10.4692 15.2739L10.6352 15.1361L9.87642 14.222L9.71041 14.3599L9.5444 14.4977L10.3032 15.4117L10.4692 15.2739ZM9.71041 14.3599L9.87634 14.222C9.55878 13.8398 9.69096 13.2606 10.1428 13.0541L10.0532 12.8579L9.96351 12.6617C9.25305 12.9863 9.04524 13.897 9.54447 14.4978L9.71041 14.3599ZM10.0532 12.8579L10.1429 13.0541L11.2239 12.56L11.1342 12.3638L11.0445 12.1675L9.96349 12.6617L10.0532 12.8579ZM11.1342 12.3638L11.224 12.56C11.7434 12.3223 12.0189 11.7481 11.8807 11.1943L11.6713 11.2466L11.462 11.2988C11.55 11.6514 11.3745 12.0166 11.0445 12.1676L11.1342 12.3638ZM11.6713 11.2466L11.8807 11.1944L11.5936 10.0421L11.3842 10.0942L11.1749 10.1464L11.462 11.2987L11.6713 11.2466ZM11.3842 10.0942L11.5936 10.042C11.4732 9.55986 11.8436 9.09506 12.3399 9.10486L12.3442 8.88915L12.3485 8.67343C11.5676 8.65802 10.9858 9.38898 11.1749 10.1465L11.3842 10.0942ZM12.3442 8.88915L12.3398 9.10486L13.5282 9.12927L13.5327 8.91356L13.5371 8.69785L12.3486 8.67344L12.3442 8.88915ZM13.5327 8.91356L13.5283 9.12928C14.0994 9.14081 14.5978 8.74315 14.7137 8.18388L14.5024 8.14013L14.2911 8.09637C14.2174 8.45217 13.9002 8.70519 13.537 8.69785L13.5327 8.91356ZM14.5024 8.14013L14.7137 8.1839L14.9549 7.01984L14.7436 6.97606L14.5323 6.93228L14.2911 8.09635L14.5024 8.14013ZM14.7436 6.97606L14.9549 7.01991C15.0558 6.53358 15.5907 6.27605 16.0338 6.50055L16.1313 6.30809L16.2288 6.11563C15.5322 5.76265 14.691 6.1677 14.5324 6.93222L14.7436 6.97606ZM16.1313 6.30809L16.0338 6.50057L17.0944 7.03768L17.1919 6.8452L17.2893 6.65272L16.2288 6.11561L16.1313 6.30809ZM17.1919 6.8452L17.0944 7.03771C17.604 7.29556 18.2244 7.15332 18.5712 6.69992L18.3999 6.56884L18.2285 6.43775C18.0078 6.72631 17.6132 6.8166 17.2893 6.65269L17.1919 6.8452ZM18.3999 6.56884L18.5711 6.70004L19.2938 5.75668L19.1225 5.62548L18.9512 5.49427L18.2286 6.43763L18.3999 6.56884ZM20.0581 8.14794V7.93218C15.7161 7.93218 12.1958 11.4525 12.1958 15.7944H12.4116H12.6273C12.6273 11.6908 15.9544 8.36369 20.0581 8.36369V8.14794ZM12.4116 15.7944L12.1959 15.7998L12.2057 16.1924L12.4213 16.187L12.637 16.1816L12.6273 15.7891L12.4116 15.7944ZM12.4213 16.187L12.2059 16.1979C12.4095 20.2184 15.6331 23.442 19.6536 23.6456L19.6645 23.4302L19.6754 23.2147C15.8761 23.0223 12.8292 19.9754 12.6368 16.1761L12.4213 16.187ZM19.6645 23.4302L19.6592 23.6459L20.0527 23.6556L20.0581 23.4399L20.0634 23.2242L19.6699 23.2145L19.6645 23.4302ZM20.0581 23.4399L20.0581 23.6557C24.2642 23.6554 27.6989 20.352 27.9093 16.1979L27.6938 16.187L27.4783 16.1761C27.2795 20.1018 24.0332 23.2239 20.058 23.2242L20.0581 23.4399ZM27.6938 16.187L27.9095 16.1924L27.9193 15.7998L27.7036 15.7944L27.4879 15.7891L27.4781 16.1816L27.6938 16.187ZM27.7036 15.7944H27.9193C27.9193 11.588 24.6158 8.15265 20.4616 7.94222L20.4506 8.1577L20.4397 8.37318C24.3656 8.57205 27.4878 11.819 27.4878 15.7944H27.7036ZM20.4506 8.1577L20.456 7.94201L20.0634 7.93225L20.0581 8.14794L20.0527 8.36363L20.4453 8.37339L20.4506 8.1577ZM20.0581 8.43114L20.058 8.6469C24.005 8.64722 27.2046 11.8474 27.2046 15.7944H27.4204H27.6361C27.6361 11.6091 24.2433 8.21573 20.0581 8.21538L20.0581 8.43114ZM27.4204 15.7944L27.2046 15.7944C27.2043 19.7412 24.0048 22.9406 20.058 22.941L20.0581 23.1567L20.0581 23.3725C24.2431 23.3721 27.6358 19.9795 27.6361 15.7944L27.4204 15.7944ZM20.0581 23.1567V22.941C16.111 22.941 12.9108 19.7414 12.9105 15.7944L12.6948 15.7944L12.479 15.7944C12.4793 19.9797 15.8727 23.3725 20.0581 23.3725V23.1567ZM12.6948 15.7944H12.9105C12.9105 11.8472 16.1108 8.6469 20.0581 8.6469V8.43114V8.21538C15.8725 8.21538 12.479 11.6089 12.479 15.7944H12.6948ZM20.3549 15.2007L20.4564 15.0102C20.4039 14.9823 18.3656 13.92 16.1551 15.9064L16.2993 16.0669L16.4435 16.2274C18.4509 14.4236 20.2612 15.3952 20.2535 15.3911L20.3549 15.2007ZM16.2993 16.0669L16.1551 15.9064C15.1741 16.7879 14.8802 17.5642 15.0109 18.2127C15.1386 18.8467 15.6553 19.265 16.0827 19.4786L16.1792 19.2856L16.2756 19.0926C15.9024 18.9061 15.5237 18.5736 15.4339 18.1275C15.347 17.696 15.5135 17.0631 16.4435 16.2274L16.2993 16.0669ZM16.1792 19.2856L16.0827 19.4786C16.6911 19.7826 17.366 19.7369 17.7515 19.7299L17.7475 19.5141L17.7436 19.2984C17.3249 19.3061 16.7697 19.3395 16.2756 19.0926L16.1792 19.2856ZM17.7475 19.5141L17.7514 19.7299C17.8572 19.728 17.9266 19.7431 17.9646 19.755C17.9837 19.761 17.9955 19.7663 18.0003 19.7687C18.0028 19.7699 18.0035 19.7704 18.0027 19.7699C18.0022 19.7696 18.0014 19.7691 18.0002 19.7683C17.9995 19.768 17.9988 19.7675 17.998 19.7669C17.9976 19.7667 17.9972 19.7664 17.9967 19.7661C17.9965 19.7659 17.9963 19.7658 17.996 19.7656C17.9959 19.7655 17.9958 19.7654 17.9956 19.7654C17.9956 19.7653 17.9955 19.7652 17.9955 19.7652C17.9954 19.7652 17.9953 19.7651 18.1176 19.5874C18.24 19.4097 18.2399 19.4096 18.2398 19.4096C18.2398 19.4095 18.2397 19.4095 18.2396 19.4094C18.2395 19.4093 18.2393 19.4092 18.2392 19.4092C18.2389 19.409 18.2387 19.4088 18.2384 19.4086C18.2378 19.4082 18.2372 19.4078 18.2366 19.4074C18.2353 19.4066 18.234 19.4057 18.2324 19.4047C18.2294 19.4028 18.2259 19.4006 18.2219 19.3982C18.2138 19.3935 18.2037 19.3879 18.1916 19.3819C18.1672 19.3698 18.1346 19.356 18.0934 19.3431C18.0105 19.3172 17.895 19.2957 17.7437 19.2984L17.7475 19.5141ZM18.1176 19.5874L18.0474 19.7914C18.0113 19.779 18.1024 19.7988 18.2216 19.9651L18.3969 19.8393L18.5723 19.7136C18.3974 19.4697 18.2305 19.3981 18.1879 19.3834L18.1176 19.5874ZM18.3969 19.8393L18.2216 19.9651C18.4448 20.2763 18.8083 20.8405 19.4167 21.1446L19.5131 20.9516L19.6096 20.7587C19.1161 20.512 18.8145 20.0514 18.5723 19.7136L18.3969 19.8393ZM19.5131 20.9516L19.4167 21.1446C19.8445 21.3584 20.49 21.5209 21.0791 21.2475C21.6818 20.9677 22.1392 20.2741 22.2737 18.9679L22.059 18.9458L21.8444 18.9237C21.7173 20.159 21.302 20.6683 20.8974 20.8561C20.4791 21.0503 19.9824 20.945 19.6096 20.7586L19.5131 20.9516ZM22.059 18.9458L22.2737 18.9679C22.4249 17.4982 21.9803 16.5065 21.485 15.8812C21.2391 15.5708 20.9832 15.3538 20.7877 15.2137C20.6898 15.1436 20.6067 15.0925 20.5469 15.0584C20.517 15.0414 20.4929 15.0286 20.4757 15.0197C20.4671 15.0153 20.4602 15.0119 20.4551 15.0094C20.4526 15.0082 20.4505 15.0072 20.4489 15.0065C20.4481 15.0061 20.4475 15.0058 20.4469 15.0055C20.4466 15.0054 20.4464 15.0053 20.4462 15.0052C20.4461 15.0051 20.4459 15.005 20.4459 15.005C20.4457 15.005 20.4456 15.0049 20.3549 15.2007C20.2643 15.3965 20.2642 15.3964 20.2641 15.3964C20.264 15.3963 20.2639 15.3963 20.2639 15.3963C20.2638 15.3962 20.2637 15.3962 20.2637 15.3962C20.2636 15.3961 20.2637 15.3962 20.2638 15.3962C20.2641 15.3964 20.2649 15.3968 20.2662 15.3974C20.2686 15.3986 20.2729 15.4007 20.2788 15.4037C20.2907 15.4098 20.3091 15.4196 20.3332 15.4333C20.3814 15.4608 20.4518 15.5039 20.5364 15.5645C20.7057 15.6858 20.9303 15.876 21.1467 16.1492C21.576 16.6911 21.9835 17.572 21.8444 18.9237L22.059 18.9458ZM25.2163 16.5747L25.3737 16.4271C24.763 15.7757 23.6873 15.8618 22.9786 16.5124L23.1245 16.6714L23.2704 16.8303C23.8569 16.2919 24.6543 16.2907 25.0589 16.7223L25.2163 16.5747ZM23.1245 16.6714L22.9785 16.5125C22.2694 17.1638 22.1005 18.223 22.7132 18.8766L22.8706 18.729L23.028 18.5814C22.6253 18.1518 22.6844 17.3685 23.2704 16.8303L23.1245 16.6714ZM22.8706 18.729L22.7132 18.8766C23.3239 19.528 24.3995 19.4421 25.1083 18.7912L24.9624 18.6323L24.8164 18.4734C24.23 19.0119 23.4326 19.013 23.028 18.5814L22.8706 18.729ZM24.9624 18.6323L25.1083 18.7912C25.8174 18.1399 25.9863 17.0807 25.3737 16.4271L25.2163 16.5747L25.0589 16.7223C25.4616 17.1518 25.4023 17.9352 24.8164 18.4734L24.9624 18.6323ZM24.0083 12.6304L24.1243 12.4485C23.2834 11.9121 22.1374 12.2952 21.5462 13.2031L21.727 13.3208L21.9078 13.4385C22.407 12.6719 23.3039 12.437 23.8922 12.8123L24.0083 12.6304ZM21.727 13.3208L21.5462 13.2031C20.9548 14.1114 21.0745 15.3067 21.9176 15.8445L22.0336 15.6626L22.1497 15.4807C21.5635 15.1068 21.4089 14.2048 21.9078 13.4385L21.727 13.3208ZM22.0336 15.6626L21.9177 15.8445C22.7587 16.3807 23.9047 15.9966 24.4957 15.0889L24.3149 14.9712L24.1341 14.8535C23.6349 15.6201 22.7379 15.8557 22.1496 15.4807L22.0336 15.6626ZM24.3149 14.9712L24.4957 15.0889C25.0868 14.1807 24.9669 12.9864 24.1244 12.4485L24.0083 12.6304L23.8921 12.8122C24.4781 13.1863 24.6326 14.0875 24.1341 14.8535L24.3149 14.9712ZM16.352 12.145L16.376 11.9306C15.4855 11.8311 14.7239 12.5904 14.6152 13.5444L14.8295 13.5688L15.0439 13.5933C15.1333 12.8095 15.7352 12.2932 16.3281 12.3594L16.352 12.145ZM14.8295 13.5688L14.6152 13.5444C14.5065 14.4984 15.0779 15.4071 15.9686 15.5069L15.9926 15.2925L16.0167 15.0781C15.4247 15.0117 14.9547 14.3768 15.0439 13.5932L14.8295 13.5688ZM15.9926 15.2925L15.9687 15.5069C16.8591 15.6064 17.6207 14.847 17.7295 13.8931L17.5151 13.8686L17.3007 13.8442C17.2114 14.628 16.6094 15.1443 16.0166 15.078L15.9926 15.2925ZM17.5151 13.8686L17.7295 13.8931C17.8383 12.9391 17.267 12.0302 16.376 11.9306L16.352 12.145L16.328 12.3594C16.9202 12.4256 17.3901 13.0606 17.3007 13.8442L17.5151 13.8686ZM20.2758 10.7651L20.3516 10.5631C19.4167 10.2125 18.3767 10.8241 17.9894 11.8344L18.1909 11.9116L18.3923 11.9888C18.7188 11.1371 19.5453 10.7216 20.2001 10.9671L20.2758 10.7651ZM18.1909 11.9116L17.9894 11.8344C17.602 12.8455 17.9715 13.9885 18.908 14.3402L18.9838 14.1382L19.0597 13.9362C18.4066 13.6909 18.0661 12.8402 18.3924 11.9888L18.1909 11.9116ZM18.9838 14.1382L18.9081 14.3402C19.8427 14.6908 20.8837 14.0805 21.2712 13.0699L21.0698 12.9927L20.8683 12.9154C20.5417 13.767 19.7146 14.1819 19.0596 13.9362L18.9838 14.1382ZM21.0698 12.9927L21.2712 13.0699C21.6589 12.0585 21.2882 10.9148 20.3517 10.5631L20.2758 10.7651L20.2 10.9671C20.8534 11.2125 21.1946 12.0641 20.8683 12.9154L21.0698 12.9927Z" fill="white" mask="url(#path-17-inside-2_4_4937)"/>
</g>
<path d="M43.1348 23.5V10.3782H49.4444C50.4371 10.3782 51.2808 10.552 51.9757 10.8994C52.6706 11.2344 53.1979 11.7245 53.5578 12.3698C53.93 13.0026 54.1161 13.7719 54.1161 14.6777C54.1161 15.5587 53.93 16.328 53.5578 16.9857C53.1979 17.6309 52.6706 18.1272 51.9757 18.4746C51.2808 18.8097 50.4371 18.9772 49.4444 18.9772H46.5595V23.5H43.1348ZM46.5595 16.3528H48.8488C49.494 16.3528 49.9904 16.2163 50.3378 15.9434C50.6852 15.658 50.859 15.2361 50.859 14.6777C50.859 14.1069 50.6852 13.685 50.3378 13.4121C49.9904 13.1391 49.494 13.0026 48.8488 13.0026H46.5595V16.3528ZM57.5277 23.7047C56.8205 23.7047 56.1938 23.5744 55.6479 23.3139C55.1143 23.0533 54.6924 22.6997 54.3822 22.253C54.0844 21.7939 53.9355 21.2727 53.9355 20.6895C53.9355 20.0195 54.1092 19.4921 54.4567 19.1075C54.8041 18.7228 55.3625 18.4498 56.1318 18.2885C56.9011 18.1148 57.9248 18.0279 59.2028 18.0279H60.2265V19.5914H59.2028C58.843 19.5914 58.5266 19.61 58.2536 19.6472C57.993 19.6845 57.7759 19.7465 57.6022 19.8334C57.4285 19.9078 57.2982 20.0071 57.2113 20.1312C57.1245 20.2552 57.081 20.3979 57.081 20.5592C57.081 20.8446 57.1803 21.0804 57.3788 21.2665C57.5898 21.4526 57.8876 21.5457 58.2722 21.5457C58.5824 21.5457 58.8554 21.4774 59.0912 21.341C59.3393 21.2045 59.5379 21.0183 59.6868 20.7826C59.8357 20.5344 59.9101 20.249 59.9101 19.9264V17.7674C59.9101 17.3207 59.7922 17.0043 59.5565 16.8181C59.3331 16.632 58.9423 16.539 58.3839 16.539C57.9124 16.539 57.3912 16.6134 56.8205 16.7623C56.2497 16.9112 55.6913 17.1408 55.1453 17.451L54.3078 15.2733C54.6304 15.05 55.0275 14.8514 55.499 14.6777C55.9829 14.504 56.4916 14.3737 57.0252 14.2868C57.5712 14.1876 58.0737 14.138 58.5328 14.138C59.5503 14.138 60.3878 14.2869 61.0455 14.5846C61.7155 14.87 62.2119 15.3167 62.5345 15.9247C62.8695 16.5203 63.037 17.2897 63.037 18.2327V23.5H59.9473V21.769H60.059C59.997 22.1661 59.8543 22.5073 59.6309 22.7927C59.4076 23.0781 59.116 23.3015 58.7561 23.4628C58.3963 23.6241 57.9868 23.7047 57.5277 23.7047ZM66.7125 23.5L62.8597 14.3427H66.21L68.4435 20.187H68.0526L70.2489 14.3427H72.3149L74.5111 20.187H74.1761L76.3724 14.3427H79.5179L75.7023 23.5H72.9663L70.4536 17.2648H71.8123L69.4485 23.5H66.7125Z" fill="#16191E"/>
<path d="M89.0086 23.7047C87.5568 23.7047 86.3098 23.4256 85.2675 22.8672C84.2252 22.3088 83.4248 21.5209 82.8665 20.5034C82.3205 19.4859 82.0475 18.2947 82.0475 16.9298C82.0475 15.5649 82.3205 14.3799 82.8665 13.3748C83.4248 12.3574 84.2252 11.5694 85.2675 11.0111C86.3098 10.4527 87.5568 10.1735 89.0086 10.1735C89.8771 10.1735 90.7147 10.3038 91.5212 10.5644C92.3278 10.8249 92.9792 11.1786 93.4755 11.6253L92.4519 14.3241C91.9059 13.927 91.3599 13.6354 90.814 13.4493C90.268 13.2508 89.7096 13.1515 89.1389 13.1515C87.9849 13.1515 87.1163 13.4803 86.5331 14.138C85.9499 14.7832 85.6583 15.7138 85.6583 16.9298C85.6583 18.1582 85.9499 19.1013 86.5331 19.7589C87.1163 20.4041 87.9849 20.7267 89.1389 20.7267C89.7096 20.7267 90.268 20.6337 90.814 20.4476C91.3599 20.249 91.9059 19.9512 92.4519 19.5542L93.4755 22.253C92.9792 22.6873 92.3278 23.0409 91.5212 23.3139C90.7147 23.5744 89.8771 23.7047 89.0086 23.7047ZM94.1926 23.5V10.3782H97.5056V15.9434H97.2078C97.5056 15.3602 97.9275 14.9135 98.4734 14.6033C99.0318 14.2931 99.6646 14.138 100.372 14.138C101.104 14.138 101.706 14.2806 102.177 14.566C102.649 14.839 103.002 15.2733 103.238 15.8689C103.474 16.4521 103.592 17.1904 103.592 18.0838V23.5H100.279V18.2141C100.279 17.8418 100.235 17.544 100.149 17.3207C100.062 17.0849 99.9314 16.9174 99.7577 16.8181C99.5964 16.7189 99.3916 16.6692 99.1435 16.6692C98.8084 16.6692 98.5168 16.7437 98.2687 16.8926C98.0205 17.0291 97.8282 17.2276 97.6917 17.4882C97.5676 17.7488 97.5056 18.059 97.5056 18.4188V23.5H94.1926ZM107.918 23.7047C107.211 23.7047 106.584 23.5744 106.038 23.3139C105.505 23.0533 105.083 22.6997 104.773 22.253C104.475 21.7939 104.326 21.2727 104.326 20.6895C104.326 20.0195 104.5 19.4921 104.847 19.1075C105.195 18.7228 105.753 18.4498 106.522 18.2885C107.292 18.1148 108.315 18.0279 109.593 18.0279H110.617V19.5914H109.593C109.233 19.5914 108.917 19.61 108.644 19.6472C108.384 19.6845 108.166 19.7465 107.993 19.8334C107.819 19.9078 107.689 20.0071 107.602 20.1312C107.515 20.2552 107.472 20.3979 107.472 20.5592C107.472 20.8446 107.571 21.0804 107.769 21.2665C107.98 21.4526 108.278 21.5457 108.663 21.5457C108.973 21.5457 109.246 21.4774 109.482 21.341C109.73 21.2045 109.928 21.0183 110.077 20.7826C110.226 20.5344 110.301 20.249 110.301 19.9264V17.7674C110.301 17.3207 110.183 17.0043 109.947 16.8181C109.724 16.632 109.333 16.539 108.774 16.539C108.303 16.539 107.782 16.6134 107.211 16.7623C106.64 16.9112 106.082 17.1408 105.536 17.451L104.698 15.2733C105.021 15.05 105.418 14.8514 105.889 14.6777C106.373 14.504 106.882 14.3737 107.416 14.2868C107.962 14.1876 108.464 14.138 108.923 14.138C109.941 14.138 110.778 14.2869 111.436 14.5846C112.106 14.87 112.602 15.3167 112.925 15.9247C113.26 16.5203 113.427 17.2897 113.427 18.2327V23.5H110.338V21.769H110.449C110.387 22.1661 110.245 22.5073 110.021 22.7927C109.798 23.0781 109.506 23.3015 109.147 23.4628C108.787 23.6241 108.377 23.7047 107.918 23.7047ZM114.607 23.5V14.3427H117.827V15.9434H117.622C117.796 15.5711 118.025 15.2547 118.311 14.9941C118.596 14.7211 118.931 14.5102 119.316 14.3613C119.713 14.2124 120.147 14.138 120.619 14.138C121.289 14.138 121.859 14.2993 122.331 14.6219C122.815 14.9445 123.162 15.4346 123.373 16.0923H123.113C123.398 15.4842 123.826 15.0065 124.397 14.6591C124.968 14.3117 125.6 14.138 126.295 14.138C127.015 14.138 127.604 14.2806 128.064 14.566C128.523 14.839 128.864 15.2733 129.087 15.8689C129.323 16.4521 129.441 17.1904 129.441 18.0838V23.5H126.128V18.1768C126.128 17.6433 126.047 17.2586 125.886 17.0229C125.725 16.7871 125.458 16.6692 125.086 16.6692C124.788 16.6692 124.527 16.7437 124.304 16.8926C124.093 17.0291 123.932 17.24 123.82 17.5254C123.721 17.7984 123.671 18.1334 123.671 18.5305V23.5H120.358V18.1768C120.358 17.6433 120.277 17.2586 120.116 17.0229C119.955 16.7871 119.688 16.6692 119.316 16.6692C119.018 16.6692 118.764 16.7437 118.553 16.8926C118.342 17.0291 118.18 17.24 118.069 17.5254C117.969 17.7984 117.92 18.1334 117.92 18.5305V23.5H114.607ZM130.62 26.8502V14.3427H133.84V15.9992H133.672C133.846 15.4408 134.206 14.9941 134.752 14.6591C135.31 14.3117 135.943 14.138 136.65 14.138C137.444 14.138 138.139 14.3303 138.735 14.7149C139.343 15.0996 139.814 15.6456 140.149 16.3528C140.484 17.0601 140.652 17.9163 140.652 18.9213C140.652 19.9016 140.484 20.7516 140.149 21.4712C139.814 22.1909 139.343 22.7431 138.735 23.1278C138.139 23.5124 137.444 23.7047 136.65 23.7047C135.968 23.7047 135.354 23.5434 134.808 23.2208C134.262 22.8982 133.896 22.4763 133.709 21.9552H133.933V26.8502H130.62ZM135.608 21.2665C136.104 21.2665 136.514 21.0804 136.836 20.7081C137.159 20.3359 137.32 19.7403 137.32 18.9213C137.32 18.09 137.159 17.4944 136.836 17.1346C136.514 16.7623 136.104 16.5762 135.608 16.5762C135.099 16.5762 134.684 16.7623 134.361 17.1346C134.038 17.4944 133.877 18.09 133.877 18.9213C133.877 19.7403 134.038 20.3359 134.361 20.7081C134.684 21.0804 135.099 21.2665 135.608 21.2665Z" fill="#16191E"/>
<defs>
<filter id="filter0_d_4_4937" x="0.640914" y="0.244094" width="38.5512" height="38.5512" filterUnits="userSpaceOnUse" color-interpolation-filters="sRGB">
<feFlood flood-opacity="0" result="BackgroundImageFix"/>
<feColorMatrix in="SourceAlpha" type="matrix" values="0 0 0 0 0 0 0 0 0 0 0 0 0 0 0 0 0 0 127 0" result="hardAlpha"/>
<feOffset dy="2.51968"/>
<feGaussianBlur stdDeviation="1.63779"/>
<feComposite in2="hardAlpha" operator="out"/>
<feColorMatrix type="matrix" values="0 0 0 0 0.878288 0 0 0 0 0.154183 0 0 0 0 0.146438 0 0 0 0.53 0"/>
<feBlend mode="normal" in2="BackgroundImageFix" result="effect1_dropShadow_4_4937"/>
<feBlend mode="normal" in="SourceGraphic" in2="effect1_dropShadow_4_4937" result="shape"/>
</filter>
<filter id="filter1_d_4_4937" x="7.39533" y="4.17949" width="25.4657" height="25.9506" filterUnits="userSpaceOnUse" color-interpolation-filters="sRGB">
<feFlood flood-opacity="0" result="BackgroundImageFix"/>
<feColorMatrix in="SourceAlpha" type="matrix" values="0 0 0 0 0 0 0 0 0 0 0 0 0 0 0 0 0 0 127 0" result="hardAlpha"/>
<feOffset dy="0.775368"/>
<feGaussianBlur stdDeviation="1.16305"/>
<feComposite in2="hardAlpha" operator="out"/>
<feColorMatrix type="matrix" values="0 0 0 0 0.575 0 0 0 0 0.110208 0 0 0 0 0.110208 0 0 0 0.67 0"/>
<feBlend mode="normal" in2="BackgroundImageFix" result="effect1_dropShadow_4_4937"/>
<feBlend mode="normal" in="SourceGraphic" in2="effect1_dropShadow_4_4937" result="shape"/>
</filter>
<filter id="filter2_d_4_4937" x="7.16004" y="3.69414" width="25.465" height="25.9503" filterUnits="userSpaceOnUse" color-interpolation-filters="sRGB">
<feFlood flood-opacity="0" result="BackgroundImageFix"/>
<feColorMatrix in="SourceAlpha" type="matrix" values="0 0 0 0 0 0 0 0 0 0 0 0 0 0 0 0 0 0 127 0" result="hardAlpha"/>
<feOffset dy="0.775368"/>
<feGaussianBlur stdDeviation="1.16305"/>
<feComposite in2="hardAlpha" operator="out"/>
<feColorMatrix type="matrix" values="0 0 0 0 0.575 0 0 0 0 0.110208 0 0 0 0 0.110208 0 0 0 0.67 0"/>
<feBlend mode="normal" in2="BackgroundImageFix" result="effect1_dropShadow_4_4937"/>
<feBlend mode="normal" in="SourceGraphic" in2="effect1_dropShadow_4_4937" result="shape"/>
</filter>
<linearGradient id="paint0_linear_4_4937" x1="20.1497" y1="1" x2="20.1497" y2="33" gradientUnits="userSpaceOnUse">
<stop stop-color="#FF765A"/>
<stop offset="1" stop-color="#FF4040"/>
</linearGradient>
<linearGradient id="paint1_linear_4_4937" x1="20.1497" y1="1" x2="20.1497" y2="33" gradientUnits="userSpaceOnUse">
<stop stop-color="#FF765A"/>
<stop offset="1" stop-color="#FF4040"/>
</linearGradient>
<linearGradient id="paint2_linear_4_4937" x1="15.4262" y1="-1.82549" x2="27.7393" y2="31.0101" gradientUnits="userSpaceOnUse">
<stop stop-color="#FF765A"/>
<stop offset="1" stop-color="#FF4040"/>
</linearGradient>
<linearGradient id="paint3_linear_4_4937" x1="15.4262" y1="-1.82549" x2="27.7393" y2="31.0101" gradientUnits="userSpaceOnUse">
<stop stop-color="#F56C50"/>
<stop offset="1" stop-color="#F83535"/>
</linearGradient>
<linearGradient id="paint4_linear_4_4937" x1="21.62" y1="5.14998" x2="21.62" y2="26.4641" gradientUnits="userSpaceOnUse">
<stop stop-color="white"/>
<stop offset="1" stop-color="#FFE0E0"/>
</linearGradient>
<linearGradient id="paint5_linear_4_4937" x1="21.2834" y1="4.65569" x2="21.2834" y2="25.9537" gradientUnits="userSpaceOnUse">
<stop stop-color="white"/>
<stop offset="1" stop-color="#FFE0E0"/>
</linearGradient>
</defs>
</svg>
