<svg width="28" height="29" viewBox="0 0 28 29" fill="none" xmlns="http://www.w3.org/2000/svg">
<path d="M10.5805 6.47846C9.93872 6.47846 9.55146 6.06907 9.55146 5.38307V4.22129C9.55146 3.53529 9.93872 3.1259 10.5805 3.1259H11.5984C11.6759 1.87561 12.7159 0.857666 13.9994 0.857666C15.2829 0.857666 16.323 1.87561 16.4004 3.1259H17.4184C18.0601 3.1259 18.4474 3.53529 18.4474 4.22129V5.38307C18.4474 6.06907 18.0601 6.47846 17.4184 6.47846H10.5805ZM13.9994 4.17703C14.5305 4.17703 14.962 3.73445 14.962 3.21442C14.962 2.67225 14.5305 2.24074 13.9994 2.24074C13.4683 2.24074 13.0368 2.67225 13.0368 3.21442C13.0368 3.73445 13.4683 4.17703 13.9994 4.17703ZM8.12413 27.6671C5.83377 27.6671 4.69412 26.5164 4.69412 24.1928V7.40789C4.69412 5.08433 5.83377 3.93361 8.01349 3.93361H8.26797V5.38307C8.26797 6.77721 9.20846 7.76195 10.5805 7.76195H17.4184C18.7904 7.76195 19.7309 6.77721 19.7309 5.38307V3.93361H19.9853C22.1651 3.93361 23.3047 5.08433 23.3047 7.40789V24.1928C23.3047 26.5164 22.1651 27.6671 19.8747 27.6671H8.12413ZM9.18633 13.2942C9.71743 13.2942 10.16 12.8516 10.16 12.3205C10.16 11.7784 9.71743 11.3469 9.18633 11.3469C8.65523 11.3469 8.21265 11.7895 8.21265 12.3205C8.21265 12.8406 8.65523 13.2942 9.18633 13.2942ZM12.2401 13.0287H19.078C19.4653 13.0287 19.7862 12.7078 19.7862 12.3205C19.7862 11.9333 19.4653 11.5903 19.078 11.5903H12.2401C11.8418 11.5903 11.5099 11.9333 11.5099 12.3205C11.5099 12.7078 11.8418 13.0287 12.2401 13.0287ZM9.18633 17.3328C9.71743 17.3328 10.16 16.8902 10.16 16.3591C10.16 15.817 9.71743 15.3965 9.18633 15.3965C8.64417 15.3965 8.21265 15.828 8.21265 16.3591C8.21265 16.8902 8.64417 17.3328 9.18633 17.3328ZM12.2401 17.0783H19.078C19.4764 17.0783 19.7862 16.7574 19.7862 16.3591C19.7862 15.9608 19.4764 15.651 19.078 15.651H12.2401C11.8308 15.651 11.5099 15.9608 11.5099 16.3591C11.5099 16.7574 11.8308 17.0783 12.2401 17.0783ZM9.18633 21.6037C9.71743 21.6037 10.16 21.1722 10.16 20.63C10.16 20.0989 9.71743 19.6564 9.18633 19.6564C8.65523 19.6564 8.21265 20.11 8.21265 20.63C8.21265 21.1611 8.65523 21.6037 9.18633 21.6037ZM12.2401 21.3492H19.078C19.4653 21.3492 19.7862 21.0173 19.7862 20.63C19.7862 20.2428 19.4764 19.9219 19.078 19.9219H12.2401C11.8308 19.9219 11.5099 20.2428 11.5099 20.63C11.5099 21.0173 11.8418 21.3492 12.2401 21.3492Z" fill="#383C44"/>
</svg>
